<svg xmlns="http://www.w3.org/2000/svg" viewBox="0 0 497.5 141.26"><defs><style>.cls-1{fill:#c4c5f3;}.cls-2{fill:#b8b5f2;}.cls-3{fill:#fffffb;}.cls-4{fill:#d2d9f5;}.cls-5{fill:#d5def5;}.cls-6{fill:#e4f3f7;}.cls-12,.cls-7{fill:#f3fff9;}.cls-8{fill:#bab7f2;}.cls-9{fill:#c0c0f3;}.cls-10{fill:#d9e3f6;}.cls-11{fill:#b1abef;}.cls-12{opacity:0.43;}</style></defs><title>Asset 1</title><g id="Layer_2" data-name="Layer 2"><g id="OBJECTS"><rect class="cls-1" x="330.19" y="50.71" width="4.83" height="2.04" transform="translate(665.21 103.45) rotate(180)"/><rect class="cls-1" x="329.57" y="52.3" width="6.07" height="0.89" transform="translate(665.21 105.48) rotate(180)"/><rect class="cls-1" x="328.06" y="53.18" width="9.1" height="2.3" transform="translate(665.21 108.67) rotate(180)"/><polygon class="cls-1" points="332.04 30.63 333.17 30.63 332.77 20 332.45 20 332.04 30.63"/><path class="cls-1" d="M331.32,30.45v20.7h2.57V30.45Zm1.46,9.1h.34V50.26h-.34Zm-.69,0h.34V50.26h-.34Z"/><rect class="cls-1" x="190.33" y="90.21" width="13.96" height="48.65"/><polygon class="cls-1" points="279.77 138.86 279.77 45.81 245.96 30.11 233.42 30.11 233.42 27.34 232.94 27.34 232.94 51.91 230.37 51.91 230.37 35.39 216.55 35.39 216.55 51.91 214.24 51.91 214.24 77.38 211.64 77.38 211.64 138.86 279.77 138.86"/><polygon class="cls-1" points="65.25 138.86 65.25 84.66 45.56 75.52 38.26 75.52 28.43 78.59 28.43 88.22 27.08 88.22 27.08 103.05 25.57 103.05 25.57 138.86 65.25 138.86"/><rect class="cls-1" x="164.44" y="85.42" width="9.07" height="53.44"/><rect class="cls-1" x="153.67" y="77.02" width="16.77" height="61.84"/><rect class="cls-1" x="138.3" y="88.85" width="12.5" height="49.2"/><rect class="cls-1" x="162.49" y="31.08" width="21.7" height="106.97"/><rect class="cls-1" x="320.95" y="40.58" width="18.44" height="92.45" transform="translate(660.35 173.6) rotate(180)"/><rect class="cls-1" x="329.51" y="57.95" width="18.44" height="80.8"/><path class="cls-1" d="M322,29.93V46.22H309.5V39.94h-6.85V37.33H299v2.61H281.78c-.06.1-.11.2-.18.3V68.18h-7.21v70.68h48.8V29.93Z"/><polygon class="cls-1" points="64.67 138.86 64.67 85.61 67.3 89.1 74.48 89.1 74.48 75.03 74.76 75.03 74.76 89.1 76.23 89.1 76.23 79.64 84.13 79.64 84.13 89.1 85.46 89.1 85.46 103.68 86.94 103.68 86.94 138.86 64.67 138.86"/><rect class="cls-1" x="89.35" y="46.43" width="13.96" height="92.43"/><polygon class="cls-1" points="103.21 138.86 103.21 69.28 116.61 69.28 123.81 76.73 123.81 138.86 103.21 138.86"/><polygon class="cls-2" points="218.96 90.21 218.96 93.08 219.97 93.08 219.97 98.84 223.37 98.84 223.37 138.86 205.56 138.86 205.56 90.21 218.96 90.21"/><rect class="cls-3" x="179.43" y="56.54" width="5.85" height="0.52"/><rect class="cls-4" x="177.96" y="57.07" width="8.77" height="8.79"/><rect class="cls-5" x="195.68" y="40.74" width="1.17" height="43.49" transform="translate(392.53 124.97) rotate(180)"/><rect class="cls-5" x="198.28" y="40.74" width="1.17" height="43.49" transform="translate(397.74 124.97) rotate(180)"/><rect class="cls-6" x="183.81" y="53.4" width="18.68" height="48.45"/><polygon class="cls-7" points="214.42 85.41 193.43 85.41 193.43 70.82 214.42 85.41"/><rect class="cls-6" x="170.01" y="66.18" width="25.26" height="72.68"/><rect class="cls-5" x="192.35" y="84.21" width="23.15" height="54.65"/><polygon class="cls-2" points="494.06 103.31 494.06 105.55 494.84 105.55 494.84 110.04 497.5 110.04 497.5 141.26 483.6 141.26 483.6 103.31 494.06 103.31"/><rect class="cls-3" x="463.22" y="77.05" width="4.56" height="0.41"/><rect class="cls-4" x="462.08" y="77.46" width="6.84" height="6.85"/><rect class="cls-5" x="475.89" y="64.73" width="0.92" height="33.92" transform="translate(952.7 163.37) rotate(180)"/><rect class="cls-5" x="477.93" y="64.73" width="0.92" height="33.92" transform="translate(956.77 163.37) rotate(180)"/><rect class="cls-6" x="466.64" y="74.61" width="14.57" height="37.79"/><polygon class="cls-7" points="490.51 99.57 474.14 99.57 474.14 88.19 490.51 99.57"/><rect class="cls-6" x="455.88" y="84.57" width="19.7" height="56.69"/><rect class="cls-5" x="473.3" y="98.63" width="18.06" height="42.62"/><polygon class="cls-2" points="2.64 112.08 2.64 113.8 2.04 113.8 2.04 117.26 0 117.26 0 141.26 10.68 141.26 10.68 112.08 2.64 112.08"/><rect class="cls-3" x="22.85" y="91.9" width="3.51" height="0.31" transform="translate(49.2 184.11) rotate(180)"/><rect class="cls-4" x="21.97" y="92.21" width="5.26" height="5.27" transform="translate(49.2 189.69) rotate(180)"/><rect class="cls-5" x="15.9" y="82.42" width="0.7" height="26.08"/><rect class="cls-5" x="14.34" y="82.42" width="0.7" height="26.08"/><rect class="cls-6" x="12.52" y="90.01" width="11.2" height="29.05" transform="translate(36.24 209.08) rotate(180)"/><polygon class="cls-7" points="5.37 109.2 17.95 109.2 17.95 100.46 5.37 109.2"/><rect class="cls-6" x="16.85" y="97.67" width="15.15" height="43.58"/><rect class="cls-5" x="4.72" y="108.49" width="13.88" height="32.77"/><rect class="cls-8" x="247.54" width="9.43" height="62.81"/><rect class="cls-5" x="240.25" y="2.37" width="34.36" height="77.61"/><rect class="cls-7" x="236.38" y="60.31" width="6.24" height="1.66" transform="translate(479 122.28) rotate(180)"/><rect class="cls-7" x="235.58" y="61.61" width="7.83" height="0.72" transform="translate(479 123.94) rotate(180)"/><rect class="cls-8" x="233.63" y="62.33" width="11.74" height="12.1" transform="translate(479 136.76) rotate(180)"/><polygon class="cls-5" points="252.98 33.37 252.98 138.86 279.77 138.86 279.77 45.81 252.98 33.37"/><rect class="cls-8" x="231.1" y="56.23" width="15.96" height="82.63"/><rect class="cls-9" x="242.99" y="64.34" width="1.31" height="52.62"/><rect class="cls-9" x="240.08" y="64.34" width="1.31" height="52.62"/><rect class="cls-9" x="237.16" y="64.34" width="1.31" height="52.62"/><rect class="cls-9" x="234.25" y="64.34" width="1.31" height="52.62"/><rect class="cls-5" x="253.24" y="54.52" width="9.22" height="9.79"/><rect class="cls-8" x="393.32" y="32.47" width="7.23" height="48.12"/><rect class="cls-5" x="387.74" y="34.28" width="26.33" height="59.47"/><rect class="cls-7" x="384.77" y="78.67" width="4.78" height="1.27" transform="translate(774.33 158.62) rotate(180)"/><rect class="cls-7" x="384.16" y="79.67" width="6" height="0.55" transform="translate(774.33 159.89) rotate(180)"/><rect class="cls-8" x="382.66" y="80.22" width="9" height="9.27" transform="translate(774.33 169.72) rotate(180)"/><polygon class="cls-5" points="397.49 58.03 397.49 138.86 418.02 138.86 418.02 67.56 397.49 58.03"/><rect class="cls-1" x="380.73" y="75.55" width="12.23" height="63.31"/><rect class="cls-9" x="389.84" y="81.76" width="1" height="40.32"/><rect class="cls-9" x="387.61" y="81.76" width="1" height="40.32"/><rect class="cls-9" x="385.38" y="81.76" width="1" height="40.32"/><rect class="cls-9" x="383.14" y="81.76" width="1" height="40.32"/><rect class="cls-5" x="397.69" y="74.24" width="7.06" height="7.5"/><rect class="cls-2" x="144.5" y="73.05" width="4.91" height="7.24" transform="translate(293.91 153.35) rotate(180)"/><rect class="cls-2" x="147.62" y="77.15" width="6.4" height="5.51" transform="translate(301.65 159.82) rotate(180)"/><rect class="cls-2" x="174.03" y="21.75" width="8.66" height="8.92" transform="translate(356.72 52.41) rotate(180)"/><polygon class="cls-10" points="131.9 138.86 132.9 82.77 134.11 82.77 134.11 77.02 153.95 74.96 153.95 86.28 156.29 86.28 156.29 24.61 184.49 24.61 184.49 84.87 187.03 84.87 187.03 138.86 131.9 138.86"/><rect class="cls-1" x="135.14" y="94.9" width="8.6" height="2.35" transform="translate(278.88 192.15) rotate(180)"/><rect class="cls-1" x="135.14" y="99.19" width="8.6" height="2.35" transform="translate(278.88 200.73) rotate(180)"/><rect class="cls-1" x="135.14" y="103.48" width="8.6" height="2.35" transform="translate(278.88 209.31) rotate(180)"/><rect class="cls-1" x="135.14" y="107.77" width="8.6" height="2.35" transform="translate(278.88 217.89) rotate(180)"/><rect class="cls-1" x="135.14" y="112.06" width="8.6" height="2.35" transform="translate(278.88 226.47) rotate(180)"/><rect class="cls-1" x="135.14" y="116.35" width="8.6" height="2.35" transform="translate(278.88 235.05) rotate(180)"/><rect class="cls-1" x="135.14" y="120.64" width="8.6" height="2.35" transform="translate(278.88 243.62) rotate(180)"/><rect class="cls-1" x="135.14" y="124.93" width="8.6" height="2.35" transform="translate(278.88 252.2) rotate(180)"/><rect class="cls-1" x="135.14" y="129.22" width="8.6" height="2.35" transform="translate(278.88 260.78) rotate(180)"/><rect class="cls-1" x="373.55" y="90.21" width="13.96" height="48.65"/><polygon class="cls-1" points="457.44 138.86 457.44 67.56 431.54 55.53 421.93 55.53 421.93 53.41 421.56 53.41 421.56 72.24 419.59 72.24 419.59 59.58 409.01 59.58 409.01 72.24 407.23 72.24 407.23 91.76 405.24 91.76 405.24 138.86 457.44 138.86"/><rect class="cls-1" x="345.71" y="31.08" width="21.7" height="106.97"/><polygon class="cls-2" points="402.18 90.21 402.18 93.08 403.19 93.08 403.19 98.84 406.59 98.84 406.59 138.86 388.77 138.86 388.77 90.21 402.18 90.21"/><rect class="cls-3" x="362.65" y="56.54" width="5.85" height="0.52"/><rect class="cls-4" x="361.18" y="57.07" width="8.77" height="8.79"/><rect class="cls-5" x="378.9" y="40.74" width="1.17" height="43.49" transform="translate(758.97 124.97) rotate(180)"/><rect class="cls-5" x="381.5" y="40.74" width="1.17" height="43.49" transform="translate(764.18 124.97) rotate(180)"/><rect class="cls-6" x="367.03" y="53.4" width="18.68" height="48.45"/><polygon class="cls-7" points="397.64 85.41 376.65 85.41 376.65 70.82 397.64 85.41"/><rect class="cls-6" x="353.23" y="66.18" width="25.26" height="72.68"/><rect class="cls-5" x="375.57" y="84.21" width="23.15" height="54.65"/><rect class="cls-8" x="434.21" y="52.03" width="4.84" height="32.25"/><rect class="cls-5" x="430.47" y="53.25" width="17.64" height="39.85"/><rect class="cls-7" x="428.48" y="83" width="3.2" height="0.85" transform="translate(860.16 166.85) rotate(180)"/><rect class="cls-7" x="428.07" y="83.66" width="4.02" height="0.37" transform="translate(860.16 167.7) rotate(180)"/><rect class="cls-8" x="427.07" y="84.04" width="6.03" height="6.21" transform="translate(860.16 174.28) rotate(180)"/><polygon class="cls-5" points="437 69.16 437 123.33 450.76 123.33 450.76 75.55 437 69.16"/><rect class="cls-5" x="425.77" y="80.9" width="8.19" height="42.42"/><rect class="cls-9" x="431.87" y="85.07" width="0.67" height="27.02"/><rect class="cls-9" x="430.38" y="85.07" width="0.67" height="27.02"/><rect class="cls-9" x="428.88" y="85.07" width="0.67" height="27.02"/><rect class="cls-9" x="427.39" y="85.07" width="0.67" height="27.02"/><rect class="cls-5" x="437.14" y="80.03" width="4.73" height="5.03"/><rect class="cls-2" x="357.25" y="21.75" width="8.66" height="8.92" transform="translate(723.16 52.41) rotate(180)"/><polygon class="cls-10" points="315.12 138.86 316.12 82.77 317.33 82.77 317.33 77.02 337.17 74.96 337.17 86.28 339.51 86.28 339.51 24.61 367.71 24.61 367.71 84.87 370.25 84.87 370.25 138.86 315.12 138.86"/><rect class="cls-1" x="318.36" y="94.9" width="8.6" height="2.35" transform="translate(645.32 192.15) rotate(180)"/><rect class="cls-1" x="318.36" y="99.19" width="8.6" height="2.35" transform="translate(645.32 200.73) rotate(180)"/><rect class="cls-1" x="318.36" y="103.48" width="8.6" height="2.35" transform="translate(645.32 209.31) rotate(180)"/><rect class="cls-1" x="318.36" y="107.77" width="8.6" height="2.35" transform="translate(645.32 217.89) rotate(180)"/><rect class="cls-1" x="318.36" y="112.06" width="8.6" height="2.35" transform="translate(645.32 226.47) rotate(180)"/><rect class="cls-1" x="318.36" y="116.35" width="8.6" height="2.35" transform="translate(645.32 235.05) rotate(180)"/><rect class="cls-1" x="318.36" y="120.64" width="8.6" height="2.35" transform="translate(645.32 243.62) rotate(180)"/><rect class="cls-1" x="318.36" y="124.93" width="8.6" height="2.35" transform="translate(645.32 252.2) rotate(180)"/><rect class="cls-1" x="318.36" y="129.22" width="8.6" height="2.35" transform="translate(645.32 260.78) rotate(180)"/><rect class="cls-5" x="304.77" y="95.65" width="18.73" height="43.12"/><path class="cls-4" d="M314.26,70.81V20.35h-4V18h-.9v-.37H309v-.67h-.67v-5h-.43l-.24-4.37h-.19l-.24,4.37h-.43v5h-.67v.67h-.37V18h-.9v2.4h-11.1l-6.4,7.79V70.81Zm-6.79-54.08h-.2V12.25h.2Zm.41,0h-.2V12.25h.2Z"/><rect class="cls-8" x="275.03" y="50.26" width="23.57" height="58.18"/><rect class="cls-7" x="88.41" y="78.48" width="3.57" height="0.95"/><rect class="cls-7" x="87.95" y="79.23" width="4.48" height="0.41"/><rect class="cls-8" x="86.83" y="79.64" width="6.72" height="6.92"/><rect class="cls-1" x="77.83" y="91.57" width="9.13" height="47.29"/><rect class="cls-9" x="79.41" y="90.91" width="0.75" height="30.11" transform="translate(159.57 211.93) rotate(180)"/><rect class="cls-9" x="81.08" y="90.91" width="0.75" height="30.11" transform="translate(162.91 211.93) rotate(180)"/><rect class="cls-9" x="82.74" y="90.91" width="0.75" height="30.11" transform="translate(166.24 211.93) rotate(180)"/><rect class="cls-9" x="84.41" y="90.91" width="0.75" height="30.11" transform="translate(169.57 211.93) rotate(180)"/><rect class="cls-2" x="78.57" y="58.02" width="16.45" height="80.84" transform="translate(173.59 196.88) rotate(180)"/><polygon class="cls-7" points="56.68 116.42 66.64 116.42 66.64 87.82 56.68 116.42"/><rect class="cls-2" x="52.41" y="55.55" width="12.23" height="44.58" transform="translate(117.05 155.69) rotate(180)"/><rect class="cls-3" x="65.61" y="84.04" width="5.68" height="0.47" transform="translate(136.89 168.55) rotate(180)"/><rect class="cls-2" x="48.56" y="67.9" width="1.15" height="70.56"/><rect class="cls-2" x="51.11" y="67.9" width="1.15" height="70.56"/><rect class="cls-2" x="53.67" y="103.39" width="1.15" height="35.07"/><rect class="cls-2" x="56.22" y="103.39" width="1.15" height="35.07"/><rect class="cls-5" x="75.93" y="68.3" width="5.28" height="5.6" transform="translate(157.13 142.2) rotate(180)"/><rect class="cls-2" x="52.55" y="101.74" width="7.7" height="37.12"/><rect class="cls-4" x="107.48" y="39.53" width="18.2" height="1.6" transform="translate(233.16 80.67) rotate(180)"/><rect class="cls-4" x="107.48" y="42.46" width="18.2" height="1.6" transform="translate(233.16 86.51) rotate(180)"/><rect class="cls-4" x="107.48" y="45.38" width="18.2" height="1.6" transform="translate(233.16 92.36) rotate(180)"/><rect class="cls-4" x="107.48" y="48.3" width="18.2" height="1.6" transform="translate(233.16 98.21) rotate(180)"/><rect class="cls-4" x="107.48" y="51.23" width="18.2" height="1.6" transform="translate(233.16 104.06) rotate(180)"/><rect class="cls-4" x="107.48" y="54.15" width="18.2" height="1.6" transform="translate(233.16 109.91) rotate(180)"/><rect class="cls-4" x="107.48" y="57.08" width="18.2" height="1.6" transform="translate(233.16 115.75) rotate(180)"/><rect class="cls-4" x="107.48" y="60" width="18.2" height="1.6" transform="translate(233.16 121.6) rotate(180)"/><rect class="cls-4" x="107.48" y="62.92" width="18.2" height="1.6" transform="translate(233.16 127.45) rotate(180)"/><polygon class="cls-4" points="91.33 138.86 123.9 138.86 124.21 37.59 91.33 34.19 91.33 138.86"/><polygon class="cls-11" points="91.33 138.86 97.94 138.86 98.31 37.37 91.33 34.19 91.33 138.86"/><polygon class="cls-5" points="123.81 76.73 116.61 69.28 103.21 69.28 123.81 76.73"/><rect class="cls-12" x="111.67" y="88.39" width="0.99" height="50.47"/><rect class="cls-12" x="113.86" y="88.39" width="0.99" height="50.47"/><rect class="cls-12" x="116.05" y="88.39" width="0.99" height="50.47"/><rect class="cls-12" x="118.24" y="88.39" width="0.99" height="50.47"/><rect class="cls-6" x="142.49" y="84.03" width="15.84" height="7.24"/><rect class="cls-6" x="290.15" y="46.21" width="33.03" height="92.65"/><rect class="cls-5" x="296.18" y="64.5" width="20.03" height="74.05"/><polygon class="cls-10" points="76.2 73.19 74.22 85.03 74.22 112.74 72.51 112.74 72.51 99.53 67.38 99.53 67.38 84.7 61.92 84.7 61.92 63.07 52.9 63.07 52.9 58.82 51.01 58.82 51.01 63.07 47.45 63.07 47.45 67.88 45.56 67.88 45.56 55.4 41.86 55.4 41.86 138.86 84.56 138.86 84.56 81.25 83.2 73.39 76.2 73.19"/><rect class="cls-6" x="99.45" y="90.12" width="8.02" height="48.74"/><rect class="cls-6" x="123.42" y="76.3" width="6.05" height="62.56"/></g></g></svg>