<svg id="objects" xmlns="http://www.w3.org/2000/svg" xmlns:xlink="http://www.w3.org/1999/xlink" width="441.004" height="423.861" viewBox="0 0 441.004 423.861">
  <defs>
    <radialGradient id="radial-gradient" cx="0.487" cy="0.258" r="0.425" gradientTransform="translate(0.019 0) scale(0.961 1)" gradientUnits="objectBoundingBox">
      <stop offset="0.005" stop-color="#afffff"/>
      <stop offset="0.178" stop-color="#9cf5fc"/>
      <stop offset="0.525" stop-color="#6ddbf5"/>
      <stop offset="1" stop-color="#24b3eb"/>
    </radialGradient>
  </defs>
  <g id="Group_18" data-name="Group 18" transform="translate(0)">
    <path id="Path_1" data-name="Path 1" d="M478.539,242.777a2.66,2.66,0,1,0,2.66,2.66A2.66,2.66,0,0,0,478.539,242.777Zm0,8.276a2.66,2.66,0,1,0,2.66,2.66A2.66,2.66,0,0,0,478.539,251.053Zm-8.276-8.276a2.66,2.66,0,1,0,2.66,2.66A2.66,2.66,0,0,0,470.263,242.777Zm0,8.276a2.66,2.66,0,1,0,2.66,2.66A2.66,2.66,0,0,0,470.263,251.053Zm0,8.276a2.66,2.66,0,1,0,2.66,2.66A2.66,2.66,0,0,0,470.263,259.33Zm-8.276-16.552a2.66,2.66,0,1,0,2.66,2.66A2.66,2.66,0,0,0,461.986,242.777Zm0,8.276a2.66,2.66,0,1,0,2.66,2.66A2.66,2.66,0,0,0,461.986,251.053Zm0,8.276a2.66,2.66,0,1,0,2.66,2.66A2.66,2.66,0,0,0,461.986,259.33Zm0,8.276a2.66,2.66,0,1,0,2.66,2.66A2.66,2.66,0,0,0,461.986,267.606Zm-8.276-33.1a2.66,2.66,0,1,0,2.66,2.66A2.66,2.66,0,0,0,453.71,234.5Zm0,8.276a2.66,2.66,0,1,0,2.66,2.66A2.66,2.66,0,0,0,453.71,242.777Zm0,8.276a2.66,2.66,0,1,0,2.66,2.66A2.66,2.66,0,0,0,453.71,251.053Zm0,8.276a2.66,2.66,0,1,0,2.66,2.66A2.66,2.66,0,0,0,453.71,259.33Zm0,8.276a2.66,2.66,0,1,0,2.66,2.66A2.66,2.66,0,0,0,453.71,267.606Zm0,8.276a2.66,2.66,0,1,0,2.66,2.66A2.66,2.66,0,0,0,453.71,275.882Zm-8.276-49.657a2.66,2.66,0,1,0,2.66,2.66A2.66,2.66,0,0,0,445.434,226.225Zm0,8.276a2.66,2.66,0,1,0,2.66,2.66A2.66,2.66,0,0,0,445.434,234.5Zm0,8.276a2.66,2.66,0,1,0,2.66,2.66A2.66,2.66,0,0,0,445.434,242.777Zm0,8.276a2.66,2.66,0,1,0,2.66,2.66A2.66,2.66,0,0,0,445.434,251.053Zm0,8.276a2.66,2.66,0,1,0,2.66,2.66A2.66,2.66,0,0,0,445.434,259.33Zm0,8.276a2.66,2.66,0,1,0,2.66,2.66A2.66,2.66,0,0,0,445.434,267.606Zm0,8.276a2.66,2.66,0,1,0,2.66,2.66A2.66,2.66,0,0,0,445.434,275.882Zm0,8.276a2.66,2.66,0,1,0,2.66,2.66A2.66,2.66,0,0,0,445.434,284.158Zm-8.276-66.21a2.66,2.66,0,1,0,2.66,2.66A2.66,2.66,0,0,0,437.158,217.948Zm0,8.276a2.66,2.66,0,1,0,2.66,2.66A2.66,2.66,0,0,0,437.158,226.225Zm0,8.276a2.66,2.66,0,1,0,2.66,2.66A2.66,2.66,0,0,0,437.158,234.5Zm0,8.276a2.66,2.66,0,1,0,2.66,2.66A2.66,2.66,0,0,0,437.158,242.777Zm0,8.276a2.66,2.66,0,1,0,2.66,2.66A2.66,2.66,0,0,0,437.158,251.053Zm0,8.276a2.66,2.66,0,1,0,2.66,2.66A2.66,2.66,0,0,0,437.158,259.33Zm0,8.276a2.66,2.66,0,1,0,2.66,2.66A2.66,2.66,0,0,0,437.158,267.606Zm0,8.276a2.66,2.66,0,1,0,2.66,2.66A2.66,2.66,0,0,0,437.158,275.882Zm0,8.276a2.66,2.66,0,1,0,2.66,2.66A2.66,2.66,0,0,0,437.158,284.158Zm0,8.276a2.66,2.66,0,1,0,2.66,2.66A2.66,2.66,0,0,0,437.158,292.434Zm-8.276-82.762a2.66,2.66,0,1,0,2.66,2.66A2.66,2.66,0,0,0,428.882,209.672Zm0,8.276a2.66,2.66,0,1,0,2.66,2.66A2.66,2.66,0,0,0,428.882,217.948Zm0,8.276a2.66,2.66,0,1,0,2.66,2.66A2.66,2.66,0,0,0,428.882,226.225Zm0,8.276a2.66,2.66,0,1,0,2.66,2.66A2.66,2.66,0,0,0,428.882,234.5Zm0,8.276a2.66,2.66,0,1,0,2.66,2.66A2.66,2.66,0,0,0,428.882,242.777Zm0,8.276a2.66,2.66,0,1,0,2.66,2.66A2.66,2.66,0,0,0,428.882,251.053Zm0,8.276a2.66,2.66,0,1,0,2.66,2.66A2.66,2.66,0,0,0,428.882,259.33Zm0,8.276a2.66,2.66,0,1,0,2.66,2.66A2.66,2.66,0,0,0,428.882,267.606Zm0,8.276a2.66,2.66,0,1,0,2.66,2.66A2.66,2.66,0,0,0,428.882,275.882Zm0,8.276a2.66,2.66,0,1,0,2.66,2.66A2.66,2.66,0,0,0,428.882,284.158Zm0,8.276a2.66,2.66,0,1,0,2.66,2.66A2.66,2.66,0,0,0,428.882,292.434Zm0,8.276a2.66,2.66,0,1,0,2.66,2.66A2.66,2.66,0,0,0,428.882,300.711ZM420.605,193.12a2.66,2.66,0,1,0,2.66,2.66A2.66,2.66,0,0,0,420.605,193.12Zm0,8.276a2.66,2.66,0,1,0,2.66,2.66A2.66,2.66,0,0,0,420.605,201.4Zm0,8.276a2.66,2.66,0,1,0,2.66,2.66A2.66,2.66,0,0,0,420.605,209.672Zm0,8.276a2.66,2.66,0,1,0,2.66,2.66A2.66,2.66,0,0,0,420.605,217.948Zm0,8.276a2.66,2.66,0,1,0,2.66,2.66A2.66,2.66,0,0,0,420.605,226.225Zm0,8.276a2.66,2.66,0,1,0,2.66,2.66A2.66,2.66,0,0,0,420.605,234.5Zm0,8.276a2.66,2.66,0,1,0,2.66,2.66A2.66,2.66,0,0,0,420.605,242.777Zm0,8.276a2.66,2.66,0,1,0,2.66,2.66A2.66,2.66,0,0,0,420.605,251.053Zm0,8.276a2.66,2.66,0,1,0,2.66,2.66A2.66,2.66,0,0,0,420.605,259.33Zm0,8.276a2.66,2.66,0,1,0,2.66,2.66A2.66,2.66,0,0,0,420.605,267.606Zm0,8.276a2.66,2.66,0,1,0,2.66,2.66A2.66,2.66,0,0,0,420.605,275.882Zm0,8.276a2.66,2.66,0,1,0,2.66,2.66A2.66,2.66,0,0,0,420.605,284.158Zm0,8.276a2.66,2.66,0,1,0,2.66,2.66A2.66,2.66,0,0,0,420.605,292.434Zm0,16.552a2.66,2.66,0,1,0,2.66,2.66A2.66,2.66,0,0,0,420.605,308.987Zm0,8.276a2.66,2.66,0,1,0,2.66,2.66A2.66,2.66,0,0,0,420.605,317.263Zm0,8.276a2.66,2.66,0,1,0,2.66,2.66A2.66,2.66,0,0,0,420.605,325.539Zm0,16.552a2.66,2.66,0,1,0,2.66,2.66A2.66,2.66,0,0,0,420.605,342.092Zm0,8.276a2.66,2.66,0,1,0,2.66,2.66A2.66,2.66,0,0,0,420.605,350.368Zm0,8.276a2.66,2.66,0,1,0,2.66,2.66A2.66,2.66,0,0,0,420.605,358.644Zm0,8.276a2.66,2.66,0,1,0,2.66,2.66A2.66,2.66,0,0,0,420.605,366.92Zm0,8.276a2.66,2.66,0,1,0,2.66,2.66A2.66,2.66,0,0,0,420.605,375.2Zm-8.276-190.353a2.66,2.66,0,1,0,2.66,2.66A2.66,2.66,0,0,0,412.329,184.844Zm0,8.276a2.66,2.66,0,1,0,2.66,2.66A2.66,2.66,0,0,0,412.329,193.12Zm0,16.552a2.66,2.66,0,1,0,2.66,2.66A2.66,2.66,0,0,0,412.329,209.672Zm0,8.276a2.66,2.66,0,1,0,2.66,2.66A2.66,2.66,0,0,0,412.329,217.948Zm0,8.276a2.66,2.66,0,1,0,2.66,2.66A2.66,2.66,0,0,0,412.329,226.225Zm0,8.276a2.66,2.66,0,1,0,2.66,2.66A2.66,2.66,0,0,0,412.329,234.5Zm0,8.276a2.66,2.66,0,1,0,2.66,2.66A2.66,2.66,0,0,0,412.329,242.777Zm0,8.276a2.66,2.66,0,1,0,2.66,2.66A2.66,2.66,0,0,0,412.329,251.053Zm0,8.276a2.66,2.66,0,1,0,2.66,2.66A2.66,2.66,0,0,0,412.329,259.33Zm0,8.276a2.66,2.66,0,1,0,2.66,2.66A2.66,2.66,0,0,0,412.329,267.606Zm0,8.276a2.66,2.66,0,1,0,2.66,2.66A2.66,2.66,0,0,0,412.329,275.882Zm0,8.276a2.66,2.66,0,1,0,2.66,2.66A2.66,2.66,0,0,0,412.329,284.158Zm0,8.276a2.66,2.66,0,1,0,2.66,2.66A2.66,2.66,0,0,0,412.329,292.434Zm0,8.276a2.66,2.66,0,1,0,2.66,2.66A2.66,2.66,0,0,0,412.329,300.711Zm0,8.276a2.66,2.66,0,1,0,2.66,2.66A2.66,2.66,0,0,0,412.329,308.987Zm0,8.276a2.66,2.66,0,1,0,2.66,2.66A2.66,2.66,0,0,0,412.329,317.263Zm0,8.276a2.66,2.66,0,1,0,2.66,2.66A2.66,2.66,0,0,0,412.329,325.539Zm0,8.276a2.66,2.66,0,1,0,2.66,2.66A2.66,2.66,0,0,0,412.329,333.816Zm0,8.276a2.66,2.66,0,1,0,2.66,2.66A2.66,2.66,0,0,0,412.329,342.092Zm0,8.276a2.66,2.66,0,1,0,2.66,2.66A2.66,2.66,0,0,0,412.329,350.368Zm0,8.276a2.66,2.66,0,1,0,2.66,2.66A2.66,2.66,0,0,0,412.329,358.644Zm0,8.276a2.66,2.66,0,1,0,2.66,2.66A2.66,2.66,0,0,0,412.329,366.92Zm0,8.276a2.66,2.66,0,1,0,2.66,2.66A2.66,2.66,0,0,0,412.329,375.2Zm-8.276-198.629a2.66,2.66,0,1,0,2.66,2.66A2.66,2.66,0,0,0,404.053,176.567Zm0,8.276a2.66,2.66,0,1,0,2.66,2.66A2.66,2.66,0,0,0,404.053,184.844Zm0,8.276a2.66,2.66,0,1,0,2.66,2.66A2.66,2.66,0,0,0,404.053,193.12Zm0,8.276a2.66,2.66,0,1,0,2.66,2.66A2.66,2.66,0,0,0,404.053,201.4Zm0,8.276a2.66,2.66,0,1,0,2.66,2.66A2.66,2.66,0,0,0,404.053,209.672Zm0,8.276a2.66,2.66,0,1,0,2.66,2.66A2.66,2.66,0,0,0,404.053,217.948Zm0,8.276a2.66,2.66,0,1,0,2.66,2.66A2.66,2.66,0,0,0,404.053,226.225Zm0,8.276a2.66,2.66,0,1,0,2.66,2.66A2.66,2.66,0,0,0,404.053,234.5Zm0,8.276a2.66,2.66,0,1,0,2.66,2.66A2.66,2.66,0,0,0,404.053,242.777Zm0,8.276a2.66,2.66,0,1,0,2.66,2.66A2.66,2.66,0,0,0,404.053,251.053Zm0,8.276a2.66,2.66,0,1,0,2.66,2.66A2.66,2.66,0,0,0,404.053,259.33Zm0,8.276a2.66,2.66,0,1,0,2.66,2.66A2.66,2.66,0,0,0,404.053,267.606Zm0,8.276a2.66,2.66,0,1,0,2.66,2.66A2.66,2.66,0,0,0,404.053,275.882Zm0,8.276a2.66,2.66,0,1,0,2.66,2.66A2.66,2.66,0,0,0,404.053,284.158Zm0,8.276a2.66,2.66,0,1,0,2.66,2.66A2.66,2.66,0,0,0,404.053,292.434Zm0,8.276a2.66,2.66,0,1,0,2.66,2.66A2.66,2.66,0,0,0,404.053,300.711Zm0,8.276a2.66,2.66,0,1,0,2.66,2.66A2.66,2.66,0,0,0,404.053,308.987Zm0,8.276a2.66,2.66,0,1,0,2.66,2.66A2.66,2.66,0,0,0,404.053,317.263Zm0,8.276a2.66,2.66,0,1,0,2.66,2.66A2.66,2.66,0,0,0,404.053,325.539Zm0,8.276a2.66,2.66,0,1,0,2.66,2.66A2.66,2.66,0,0,0,404.053,333.816Zm0,8.276a2.66,2.66,0,1,0,2.66,2.66A2.66,2.66,0,0,0,404.053,342.092Zm0,8.276a2.66,2.66,0,1,0,2.66,2.66A2.66,2.66,0,0,0,404.053,350.368Zm0,8.276a2.66,2.66,0,1,0,2.66,2.66A2.66,2.66,0,0,0,404.053,358.644Zm0,8.276a2.66,2.66,0,1,0,2.66,2.66A2.66,2.66,0,0,0,404.053,366.92Zm0,8.276a2.66,2.66,0,1,0,2.66,2.66A2.66,2.66,0,0,0,404.053,375.2Zm0,8.276a2.66,2.66,0,1,0,2.66,2.66A2.66,2.66,0,0,0,404.053,383.473Zm-8.276-223.458a2.66,2.66,0,1,0,2.66,2.66A2.66,2.66,0,0,0,395.777,160.015Zm0,8.276a2.66,2.66,0,1,0,2.66,2.66A2.66,2.66,0,0,0,395.777,168.291Zm0,8.276a2.66,2.66,0,1,0,2.66,2.66A2.66,2.66,0,0,0,395.777,176.567Zm0,8.276a2.66,2.66,0,1,0,2.66,2.66A2.66,2.66,0,0,0,395.777,184.844Zm0,8.276a2.66,2.66,0,1,0,2.66,2.66A2.66,2.66,0,0,0,395.777,193.12Zm0,8.276a2.66,2.66,0,1,0,2.66,2.66A2.66,2.66,0,0,0,395.777,201.4Zm0,8.276a2.66,2.66,0,1,0,2.66,2.66A2.66,2.66,0,0,0,395.777,209.672Zm0,8.276a2.66,2.66,0,1,0,2.66,2.66A2.66,2.66,0,0,0,395.777,217.948Zm0,8.276a2.66,2.66,0,1,0,2.66,2.66A2.66,2.66,0,0,0,395.777,226.225Zm0,8.276a2.66,2.66,0,1,0,2.66,2.66A2.66,2.66,0,0,0,395.777,234.5Zm0,8.276a2.66,2.66,0,1,0,2.66,2.66A2.66,2.66,0,0,0,395.777,242.777Zm0,8.276a2.66,2.66,0,1,0,2.66,2.66A2.66,2.66,0,0,0,395.777,251.053Zm0,8.276a2.66,2.66,0,1,0,2.66,2.66A2.66,2.66,0,0,0,395.777,259.33Zm0,8.276a2.66,2.66,0,1,0,2.66,2.66A2.66,2.66,0,0,0,395.777,267.606Zm0,8.276a2.66,2.66,0,1,0,2.66,2.66A2.66,2.66,0,0,0,395.777,275.882Zm0,8.276a2.66,2.66,0,1,0,2.66,2.66A2.66,2.66,0,0,0,395.777,284.158Zm0,8.276a2.66,2.66,0,1,0,2.66,2.66A2.66,2.66,0,0,0,395.777,292.434Zm0,8.276a2.66,2.66,0,1,0,2.66,2.66A2.66,2.66,0,0,0,395.777,300.711Zm0,8.276a2.66,2.66,0,1,0,2.66,2.66A2.66,2.66,0,0,0,395.777,308.987Zm0,8.276a2.66,2.66,0,1,0,2.66,2.66A2.66,2.66,0,0,0,395.777,317.263Zm0,8.276a2.66,2.66,0,1,0,2.66,2.66A2.66,2.66,0,0,0,395.777,325.539Zm0,8.276a2.66,2.66,0,1,0,2.66,2.66A2.66,2.66,0,0,0,395.777,333.816Zm0,8.276a2.66,2.66,0,1,0,2.66,2.66A2.66,2.66,0,0,0,395.777,342.092Zm0,8.276a2.66,2.66,0,1,0,2.66,2.66A2.66,2.66,0,0,0,395.777,350.368Zm0,8.276a2.66,2.66,0,1,0,2.66,2.66A2.66,2.66,0,0,0,395.777,358.644Zm0,8.276a2.66,2.66,0,1,0,2.66,2.66A2.66,2.66,0,0,0,395.777,366.92Zm0,8.276a2.66,2.66,0,1,0,2.66,2.66A2.66,2.66,0,0,0,395.777,375.2Zm0,8.276a2.66,2.66,0,1,0,2.66,2.66A2.66,2.66,0,0,0,395.777,383.473Zm0,8.276a2.66,2.66,0,1,0,2.66,2.66A2.66,2.66,0,0,0,395.777,391.749ZM387.5,143.462a2.66,2.66,0,1,0,2.66,2.66A2.66,2.66,0,0,0,387.5,143.462Zm0,8.276a2.66,2.66,0,1,0,2.66,2.66A2.66,2.66,0,0,0,387.5,151.739Zm0,8.276a2.66,2.66,0,1,0,2.66,2.66A2.66,2.66,0,0,0,387.5,160.015Zm0,8.276a2.66,2.66,0,1,0,2.66,2.66A2.66,2.66,0,0,0,387.5,168.291Zm0,8.276a2.66,2.66,0,1,0,2.66,2.66A2.66,2.66,0,0,0,387.5,176.567Zm0,8.276a2.66,2.66,0,1,0,2.66,2.66A2.66,2.66,0,0,0,387.5,184.844Zm0,8.276a2.66,2.66,0,1,0,2.66,2.66A2.66,2.66,0,0,0,387.5,193.12Zm0,8.276a2.66,2.66,0,1,0,2.66,2.66A2.66,2.66,0,0,0,387.5,201.4Zm0,8.276a2.66,2.66,0,1,0,2.66,2.66A2.66,2.66,0,0,0,387.5,209.672Zm0,8.276a2.66,2.66,0,1,0,2.66,2.66A2.66,2.66,0,0,0,387.5,217.948Zm0,8.276a2.66,2.66,0,1,0,2.66,2.66A2.66,2.66,0,0,0,387.5,226.225Zm0,8.276a2.66,2.66,0,1,0,2.66,2.66A2.66,2.66,0,0,0,387.5,234.5Zm0,8.276a2.66,2.66,0,1,0,2.66,2.66A2.66,2.66,0,0,0,387.5,242.777Zm0,8.276a2.66,2.66,0,1,0,2.66,2.66A2.66,2.66,0,0,0,387.5,251.053Zm0,8.276a2.66,2.66,0,1,0,2.66,2.66A2.66,2.66,0,0,0,387.5,259.33Zm0,8.276a2.66,2.66,0,1,0,2.66,2.66A2.66,2.66,0,0,0,387.5,267.606Zm0,8.276a2.66,2.66,0,1,0,2.66,2.66A2.66,2.66,0,0,0,387.5,275.882Zm0,8.276a2.66,2.66,0,1,0,2.66,2.66A2.66,2.66,0,0,0,387.5,284.158Zm0,8.276a2.66,2.66,0,1,0,2.66,2.66A2.66,2.66,0,0,0,387.5,292.434Zm0,8.276a2.66,2.66,0,1,0,2.66,2.66A2.66,2.66,0,0,0,387.5,300.711Zm0,8.276a2.66,2.66,0,1,0,2.66,2.66A2.66,2.66,0,0,0,387.5,308.987Zm0,8.276a2.66,2.66,0,1,0,2.66,2.66A2.66,2.66,0,0,0,387.5,317.263Zm0,8.276a2.66,2.66,0,1,0,2.66,2.66A2.66,2.66,0,0,0,387.5,325.539Zm0,8.276a2.66,2.66,0,1,0,2.66,2.66A2.66,2.66,0,0,0,387.5,333.816Zm0,8.276a2.66,2.66,0,1,0,2.66,2.66A2.66,2.66,0,0,0,387.5,342.092Zm0,8.276a2.66,2.66,0,1,0,2.66,2.66A2.66,2.66,0,0,0,387.5,350.368Zm0,8.276a2.66,2.66,0,1,0,2.66,2.66A2.66,2.66,0,0,0,387.5,358.644Zm0,8.276a2.66,2.66,0,1,0,2.66,2.66A2.66,2.66,0,0,0,387.5,366.92Zm0,8.276a2.66,2.66,0,1,0,2.66,2.66A2.66,2.66,0,0,0,387.5,375.2Zm0,8.276a2.66,2.66,0,1,0,2.66,2.66A2.66,2.66,0,0,0,387.5,383.473Zm0,8.276a2.66,2.66,0,1,0,2.66,2.66A2.66,2.66,0,0,0,387.5,391.749Zm0,8.276a2.66,2.66,0,1,0,2.66,2.66A2.66,2.66,0,0,0,387.5,400.025Zm0,8.276a2.66,2.66,0,1,0,2.66,2.66A2.66,2.66,0,0,0,387.5,408.3Zm0,8.276a2.66,2.66,0,1,0,2.66,2.66A2.66,2.66,0,0,0,387.5,416.578Zm0,8.276a2.66,2.66,0,1,0,2.66,2.66A2.66,2.66,0,0,0,387.5,424.854Zm0,8.276a2.66,2.66,0,1,0,2.66,2.66A2.66,2.66,0,0,0,387.5,433.13Zm-8.276-297.944a2.66,2.66,0,1,0,2.66,2.66A2.66,2.66,0,0,0,379.224,135.186Zm0,8.276a2.66,2.66,0,1,0,2.66,2.66A2.66,2.66,0,0,0,379.224,143.462Zm0,8.276a2.66,2.66,0,1,0,2.66,2.66A2.66,2.66,0,0,0,379.224,151.739Zm0,8.276a2.66,2.66,0,1,0,2.66,2.66A2.66,2.66,0,0,0,379.224,160.015Zm0,8.276a2.66,2.66,0,1,0,2.66,2.66A2.66,2.66,0,0,0,379.224,168.291Zm0,8.276a2.66,2.66,0,1,0,2.66,2.66A2.66,2.66,0,0,0,379.224,176.567Zm0,8.276a2.66,2.66,0,1,0,2.66,2.66A2.66,2.66,0,0,0,379.224,184.844Zm0,8.276a2.66,2.66,0,1,0,2.66,2.66A2.66,2.66,0,0,0,379.224,193.12Zm0,8.276a2.66,2.66,0,1,0,2.66,2.66A2.66,2.66,0,0,0,379.224,201.4Zm0,8.276a2.66,2.66,0,1,0,2.66,2.66A2.66,2.66,0,0,0,379.224,209.672Zm0,8.276a2.66,2.66,0,1,0,2.66,2.66A2.66,2.66,0,0,0,379.224,217.948Zm0,8.276a2.66,2.66,0,1,0,2.66,2.66A2.66,2.66,0,0,0,379.224,226.225Zm0,8.276a2.66,2.66,0,1,0,2.66,2.66A2.66,2.66,0,0,0,379.224,234.5Zm0,8.276a2.66,2.66,0,1,0,2.66,2.66A2.66,2.66,0,0,0,379.224,242.777Zm0,8.276a2.66,2.66,0,1,0,2.66,2.66A2.66,2.66,0,0,0,379.224,251.053Zm0,8.276a2.66,2.66,0,1,0,2.66,2.66A2.66,2.66,0,0,0,379.224,259.33Zm0,8.276a2.66,2.66,0,1,0,2.66,2.66A2.66,2.66,0,0,0,379.224,267.606Zm0,8.276a2.66,2.66,0,1,0,2.66,2.66A2.66,2.66,0,0,0,379.224,275.882Zm0,8.276a2.66,2.66,0,1,0,2.66,2.66A2.66,2.66,0,0,0,379.224,284.158Zm0,8.276a2.66,2.66,0,1,0,2.66,2.66A2.66,2.66,0,0,0,379.224,292.434Zm0,8.276a2.66,2.66,0,1,0,2.66,2.66A2.66,2.66,0,0,0,379.224,300.711Zm0,8.276a2.66,2.66,0,1,0,2.66,2.66A2.66,2.66,0,0,0,379.224,308.987Zm0,8.276a2.66,2.66,0,1,0,2.66,2.66A2.66,2.66,0,0,0,379.224,317.263Zm0,8.276a2.66,2.66,0,1,0,2.66,2.66A2.66,2.66,0,0,0,379.224,325.539Zm0,8.276a2.66,2.66,0,1,0,2.66,2.66A2.66,2.66,0,0,0,379.224,333.816Zm0,8.276a2.66,2.66,0,1,0,2.66,2.66A2.66,2.66,0,0,0,379.224,342.092Zm0,8.276a2.66,2.66,0,1,0,2.66,2.66A2.66,2.66,0,0,0,379.224,350.368Zm0,8.276a2.66,2.66,0,1,0,2.66,2.66A2.66,2.66,0,0,0,379.224,358.644Zm0,8.276a2.66,2.66,0,1,0,2.66,2.66A2.66,2.66,0,0,0,379.224,366.92Zm0,8.276a2.66,2.66,0,1,0,2.66,2.66A2.66,2.66,0,0,0,379.224,375.2Zm0,8.276a2.66,2.66,0,1,0,2.66,2.66A2.66,2.66,0,0,0,379.224,383.473Zm0,8.276a2.66,2.66,0,1,0,2.66,2.66A2.66,2.66,0,0,0,379.224,391.749Zm0,8.276a2.66,2.66,0,1,0,2.66,2.66A2.66,2.66,0,0,0,379.224,400.025Zm0,8.276a2.66,2.66,0,1,0,2.66,2.66A2.66,2.66,0,0,0,379.224,408.3Zm0,8.276a2.66,2.66,0,1,0,2.66,2.66A2.66,2.66,0,0,0,379.224,416.578Zm0,8.276a2.66,2.66,0,1,0,2.66,2.66A2.66,2.66,0,0,0,379.224,424.854Zm0,8.276a2.66,2.66,0,1,0,2.66,2.66A2.66,2.66,0,0,0,379.224,433.13Zm0,8.276a2.66,2.66,0,1,0,2.66,2.66A2.66,2.66,0,0,0,379.224,441.406Zm-8.276-314.5a2.66,2.66,0,1,0,2.66,2.66A2.66,2.66,0,0,0,370.948,126.91Zm0,16.552a2.66,2.66,0,1,0,2.66,2.66A2.66,2.66,0,0,0,370.948,143.462Zm0,8.276a2.66,2.66,0,1,0,2.66,2.66A2.66,2.66,0,0,0,370.948,151.739Zm0,8.276a2.66,2.66,0,1,0,2.66,2.66A2.66,2.66,0,0,0,370.948,160.015Zm0,8.276a2.66,2.66,0,1,0,2.66,2.66A2.66,2.66,0,0,0,370.948,168.291Zm0,8.276a2.66,2.66,0,1,0,2.66,2.66A2.66,2.66,0,0,0,370.948,176.567Zm0,8.276a2.66,2.66,0,1,0,2.66,2.66A2.66,2.66,0,0,0,370.948,184.844Zm0,8.276a2.66,2.66,0,1,0,2.66,2.66A2.66,2.66,0,0,0,370.948,193.12Zm0,8.276a2.66,2.66,0,1,0,2.66,2.66A2.66,2.66,0,0,0,370.948,201.4Zm0,8.276a2.66,2.66,0,1,0,2.66,2.66A2.66,2.66,0,0,0,370.948,209.672Zm0,8.276a2.66,2.66,0,1,0,2.66,2.66A2.66,2.66,0,0,0,370.948,217.948Zm0,8.276a2.66,2.66,0,1,0,2.66,2.66A2.66,2.66,0,0,0,370.948,226.225Zm0,8.276a2.66,2.66,0,1,0,2.66,2.66A2.66,2.66,0,0,0,370.948,234.5Zm0,8.276a2.66,2.66,0,1,0,2.66,2.66A2.66,2.66,0,0,0,370.948,242.777Zm0,8.276a2.66,2.66,0,1,0,2.66,2.66A2.66,2.66,0,0,0,370.948,251.053Zm0,8.276a2.66,2.66,0,1,0,2.66,2.66A2.66,2.66,0,0,0,370.948,259.33Zm0,8.276a2.66,2.66,0,1,0,2.66,2.66A2.66,2.66,0,0,0,370.948,267.606Zm0,8.276a2.66,2.66,0,1,0,2.66,2.66A2.66,2.66,0,0,0,370.948,275.882Zm0,8.276a2.66,2.66,0,1,0,2.66,2.66A2.66,2.66,0,0,0,370.948,284.158Zm0,8.276a2.66,2.66,0,1,0,2.66,2.66A2.66,2.66,0,0,0,370.948,292.434Zm0,8.276a2.66,2.66,0,1,0,2.66,2.66A2.66,2.66,0,0,0,370.948,300.711Zm0,8.276a2.66,2.66,0,1,0,2.66,2.66A2.66,2.66,0,0,0,370.948,308.987Zm0,8.276a2.66,2.66,0,1,0,2.66,2.66A2.66,2.66,0,0,0,370.948,317.263Zm0,8.276a2.66,2.66,0,1,0,2.66,2.66A2.66,2.66,0,0,0,370.948,325.539Zm0,16.552a2.66,2.66,0,1,0,2.66,2.66A2.66,2.66,0,0,0,370.948,342.092Zm0,8.276a2.66,2.66,0,1,0,2.66,2.66A2.66,2.66,0,0,0,370.948,350.368Zm0,8.276a2.66,2.66,0,1,0,2.66,2.66A2.66,2.66,0,0,0,370.948,358.644Zm0,8.276a2.66,2.66,0,1,0,2.66,2.66A2.66,2.66,0,0,0,370.948,366.92Zm0,8.276a2.66,2.66,0,1,0,2.66,2.66A2.66,2.66,0,0,0,370.948,375.2Zm0,8.276a2.66,2.66,0,1,0,2.66,2.66A2.66,2.66,0,0,0,370.948,383.473Zm0,8.276a2.66,2.66,0,1,0,2.66,2.66A2.66,2.66,0,0,0,370.948,391.749Zm0,8.276a2.66,2.66,0,1,0,2.66,2.66A2.66,2.66,0,0,0,370.948,400.025Zm0,8.276a2.66,2.66,0,1,0,2.66,2.66A2.66,2.66,0,0,0,370.948,408.3Zm0,8.276a2.66,2.66,0,1,0,2.66,2.66A2.66,2.66,0,0,0,370.948,416.578Zm0,8.276a2.66,2.66,0,1,0,2.66,2.66A2.66,2.66,0,0,0,370.948,424.854Zm0,8.276a2.66,2.66,0,1,0,2.66,2.66A2.66,2.66,0,0,0,370.948,433.13Zm0,8.276a2.66,2.66,0,1,0,2.66,2.66A2.66,2.66,0,0,0,370.948,441.406Zm0,8.276a2.66,2.66,0,1,0,2.66,2.66A2.66,2.66,0,0,0,370.948,449.683Zm0,8.276a2.66,2.66,0,1,0,2.66,2.66A2.66,2.66,0,0,0,370.948,457.959ZM362.672,126.91a2.66,2.66,0,1,0,2.66,2.66A2.66,2.66,0,0,0,362.672,126.91Zm0,8.276a2.66,2.66,0,1,0,2.66,2.66A2.66,2.66,0,0,0,362.672,135.186Zm0,8.276a2.66,2.66,0,1,0,2.66,2.66A2.66,2.66,0,0,0,362.672,143.462Zm0,8.276a2.66,2.66,0,1,0,2.66,2.66A2.66,2.66,0,0,0,362.672,151.739Zm0,8.276a2.66,2.66,0,1,0,2.66,2.66A2.66,2.66,0,0,0,362.672,160.015Zm0,8.276a2.66,2.66,0,1,0,2.66,2.66A2.66,2.66,0,0,0,362.672,168.291Zm0,8.276a2.66,2.66,0,1,0,2.66,2.66A2.66,2.66,0,0,0,362.672,176.567Zm0,8.276a2.66,2.66,0,1,0,2.66,2.66A2.66,2.66,0,0,0,362.672,184.844Zm0,8.276a2.66,2.66,0,0,0,0,5.32,2.66,2.66,0,1,0,0-5.32Zm0,8.276a2.66,2.66,0,1,0,2.66,2.66A2.66,2.66,0,0,0,362.672,201.4Zm0,8.276a2.66,2.66,0,1,0,2.66,2.66A2.66,2.66,0,0,0,362.672,209.672Zm0,8.276a2.66,2.66,0,1,0,2.66,2.66A2.66,2.66,0,0,0,362.672,217.948Zm0,8.276a2.66,2.66,0,1,0,2.66,2.66A2.66,2.66,0,0,0,362.672,226.225Zm0,8.276a2.66,2.66,0,1,0,2.66,2.66A2.66,2.66,0,0,0,362.672,234.5Zm0,8.276a2.66,2.66,0,1,0,2.66,2.66A2.66,2.66,0,0,0,362.672,242.777Zm0,8.276a2.66,2.66,0,1,0,2.66,2.66A2.66,2.66,0,0,0,362.672,251.053Zm0,8.276a2.66,2.66,0,1,0,2.66,2.66A2.66,2.66,0,0,0,362.672,259.33Zm0,8.276a2.66,2.66,0,1,0,2.66,2.66A2.66,2.66,0,0,0,362.672,267.606Zm0,8.276a2.66,2.66,0,1,0,2.66,2.66A2.66,2.66,0,0,0,362.672,275.882Zm0,8.276a2.66,2.66,0,1,0,2.66,2.66A2.66,2.66,0,0,0,362.672,284.158Zm0,8.276a2.66,2.66,0,1,0,2.66,2.66A2.66,2.66,0,0,0,362.672,292.434Zm0,8.276a2.66,2.66,0,1,0,2.66,2.66A2.66,2.66,0,0,0,362.672,300.711Zm0,8.276a2.66,2.66,0,1,0,2.66,2.66A2.66,2.66,0,0,0,362.672,308.987Zm0,8.276a2.66,2.66,0,1,0,2.66,2.66A2.66,2.66,0,0,0,362.672,317.263Zm0,8.276a2.66,2.66,0,1,0,2.66,2.66A2.66,2.66,0,0,0,362.672,325.539Zm0,8.276a2.66,2.66,0,1,0,2.66,2.66A2.66,2.66,0,0,0,362.672,333.816Zm0,8.276a2.66,2.66,0,1,0,2.66,2.66A2.66,2.66,0,0,0,362.672,342.092Zm0,8.276a2.66,2.66,0,1,0,2.66,2.66A2.66,2.66,0,0,0,362.672,350.368Zm0,8.276a2.66,2.66,0,1,0,2.66,2.66A2.66,2.66,0,0,0,362.672,358.644Zm0,8.276a2.66,2.66,0,1,0,2.66,2.66A2.66,2.66,0,0,0,362.672,366.92Zm0,8.276a2.66,2.66,0,1,0,2.66,2.66A2.66,2.66,0,0,0,362.672,375.2Zm0,8.276a2.66,2.66,0,1,0,2.66,2.66A2.66,2.66,0,0,0,362.672,383.473Zm0,8.276a2.66,2.66,0,1,0,2.66,2.66A2.66,2.66,0,0,0,362.672,391.749Zm0,8.276a2.66,2.66,0,1,0,2.66,2.66A2.66,2.66,0,0,0,362.672,400.025Zm0,8.276a2.66,2.66,0,1,0,2.66,2.66A2.66,2.66,0,0,0,362.672,408.3Zm0,8.276a2.66,2.66,0,1,0,2.66,2.66A2.66,2.66,0,0,0,362.672,416.578Zm0,8.276a2.66,2.66,0,1,0,2.66,2.66A2.66,2.66,0,0,0,362.672,424.854Zm0,8.276a2.66,2.66,0,1,0,2.66,2.66A2.66,2.66,0,0,0,362.672,433.13Zm0,8.276a2.66,2.66,0,1,0,2.66,2.66A2.66,2.66,0,0,0,362.672,441.406Zm0,8.276a2.66,2.66,0,1,0,2.66,2.66A2.66,2.66,0,0,0,362.672,449.683Zm0,8.276a2.66,2.66,0,1,0,2.66,2.66A2.66,2.66,0,0,0,362.672,457.959ZM354.4,126.91a2.66,2.66,0,1,0,2.66,2.66A2.66,2.66,0,0,0,354.4,126.91Zm0,8.276a2.66,2.66,0,1,0,2.66,2.66A2.66,2.66,0,0,0,354.4,135.186Zm0,8.276a2.66,2.66,0,1,0,2.66,2.66A2.66,2.66,0,0,0,354.4,143.462Zm0,8.276a2.66,2.66,0,1,0,2.66,2.66A2.66,2.66,0,0,0,354.4,151.739Zm0,8.276a2.66,2.66,0,1,0,2.66,2.66A2.66,2.66,0,0,0,354.4,160.015Zm0,8.276a2.66,2.66,0,1,0,2.66,2.66A2.66,2.66,0,0,0,354.4,168.291Zm0,8.276a2.66,2.66,0,1,0,2.66,2.66A2.66,2.66,0,0,0,354.4,176.567Zm0,8.276a2.66,2.66,0,1,0,2.66,2.66A2.66,2.66,0,0,0,354.4,184.844Zm0,8.276a2.66,2.66,0,1,0,2.66,2.66A2.66,2.66,0,0,0,354.4,193.12Zm0,8.276a2.66,2.66,0,1,0,2.66,2.66A2.66,2.66,0,0,0,354.4,201.4Zm0,8.276a2.66,2.66,0,1,0,2.66,2.66A2.66,2.66,0,0,0,354.4,209.672Zm0,8.276a2.66,2.66,0,1,0,2.66,2.66A2.66,2.66,0,0,0,354.4,217.948Zm0,8.276a2.66,2.66,0,1,0,2.66,2.66A2.66,2.66,0,0,0,354.4,226.225Zm0,8.276a2.66,2.66,0,1,0,2.66,2.66A2.66,2.66,0,0,0,354.4,234.5Zm0,8.276a2.66,2.66,0,1,0,2.66,2.66A2.66,2.66,0,0,0,354.4,242.777Zm0,8.276a2.66,2.66,0,1,0,2.66,2.66A2.66,2.66,0,0,0,354.4,251.053Zm0,8.276a2.66,2.66,0,1,0,2.66,2.66A2.66,2.66,0,0,0,354.4,259.33Zm0,16.552a2.66,2.66,0,1,0,2.66,2.66A2.66,2.66,0,0,0,354.4,275.882Zm0,8.276a2.66,2.66,0,1,0,2.66,2.66A2.66,2.66,0,0,0,354.4,284.158Zm0,8.276a2.66,2.66,0,1,0,2.66,2.66A2.66,2.66,0,0,0,354.4,292.434Zm0,8.276a2.66,2.66,0,1,0,2.66,2.66A2.66,2.66,0,0,0,354.4,300.711Zm0,8.276a2.66,2.66,0,1,0,2.66,2.66A2.66,2.66,0,0,0,354.4,308.987Zm0,8.276a2.66,2.66,0,1,0,2.66,2.66A2.66,2.66,0,0,0,354.4,317.263Zm0,8.276a2.66,2.66,0,1,0,2.66,2.66A2.66,2.66,0,0,0,354.4,325.539Zm0,8.276a2.66,2.66,0,1,0,2.66,2.66A2.66,2.66,0,0,0,354.4,333.816Zm0,8.276a2.66,2.66,0,1,0,2.66,2.66A2.66,2.66,0,0,0,354.4,342.092Zm0,8.276a2.66,2.66,0,1,0,2.66,2.66A2.66,2.66,0,0,0,354.4,350.368Zm0,8.276a2.66,2.66,0,1,0,2.66,2.66A2.66,2.66,0,0,0,354.4,358.644Zm0,8.276a2.66,2.66,0,1,0,2.66,2.66A2.66,2.66,0,0,0,354.4,366.92Zm0,8.276a2.66,2.66,0,1,0,2.66,2.66A2.66,2.66,0,0,0,354.4,375.2Zm0,8.276a2.66,2.66,0,1,0,2.66,2.66A2.66,2.66,0,0,0,354.4,383.473Zm0,8.276a2.66,2.66,0,1,0,2.66,2.66A2.66,2.66,0,0,0,354.4,391.749Zm0,8.276a2.66,2.66,0,1,0,2.66,2.66A2.66,2.66,0,0,0,354.4,400.025Zm0,8.276a2.66,2.66,0,1,0,2.66,2.66A2.66,2.66,0,0,0,354.4,408.3Zm0,8.276a2.66,2.66,0,1,0,2.66,2.66A2.66,2.66,0,0,0,354.4,416.578Zm0,8.276a2.66,2.66,0,1,0,2.66,2.66A2.66,2.66,0,0,0,354.4,424.854Zm0,8.276a2.66,2.66,0,1,0,2.66,2.66A2.66,2.66,0,0,0,354.4,433.13Zm0,8.276a2.66,2.66,0,1,0,2.66,2.66A2.66,2.66,0,0,0,354.4,441.406Zm0,8.276a2.66,2.66,0,1,0,2.66,2.66A2.66,2.66,0,0,0,354.4,449.683Zm0,16.552a2.66,2.66,0,1,0,2.66,2.66A2.66,2.66,0,0,0,354.4,466.235ZM346.119,126.91a2.66,2.66,0,1,0,2.66,2.66A2.66,2.66,0,0,0,346.119,126.91Zm0,8.276a2.66,2.66,0,1,0,2.66,2.66A2.66,2.66,0,0,0,346.119,135.186Zm0,8.276a2.66,2.66,0,1,0,2.66,2.66A2.66,2.66,0,0,0,346.119,143.462Zm0,8.276a2.66,2.66,0,1,0,2.66,2.66A2.66,2.66,0,0,0,346.119,151.739Zm0,8.276a2.66,2.66,0,1,0,2.66,2.66A2.66,2.66,0,0,0,346.119,160.015Zm0,8.276a2.66,2.66,0,1,0,2.66,2.66A2.66,2.66,0,0,0,346.119,168.291Zm0,8.276a2.66,2.66,0,1,0,2.66,2.66A2.66,2.66,0,0,0,346.119,176.567Zm0,8.276a2.66,2.66,0,1,0,2.66,2.66A2.66,2.66,0,0,0,346.119,184.844Zm0,8.276a2.66,2.66,0,1,0,2.66,2.66A2.66,2.66,0,0,0,346.119,193.12Zm0,8.276a2.66,2.66,0,1,0,2.66,2.66A2.66,2.66,0,0,0,346.119,201.4Zm0,8.276a2.66,2.66,0,1,0,2.66,2.66A2.66,2.66,0,0,0,346.119,209.672Zm0,8.276a2.66,2.66,0,1,0,2.66,2.66A2.66,2.66,0,0,0,346.119,217.948Zm0,8.276a2.66,2.66,0,1,0,2.66,2.66A2.66,2.66,0,0,0,346.119,226.225Zm0,8.276a2.66,2.66,0,1,0,2.66,2.66A2.66,2.66,0,0,0,346.119,234.5Zm0,8.276a2.66,2.66,0,1,0,2.66,2.66A2.66,2.66,0,0,0,346.119,242.777Zm0,8.276a2.66,2.66,0,1,0,2.66,2.66A2.66,2.66,0,0,0,346.119,251.053Zm0,8.276a2.66,2.66,0,1,0,2.66,2.66A2.66,2.66,0,0,0,346.119,259.33Zm0,8.276a2.66,2.66,0,1,0,2.66,2.66A2.66,2.66,0,0,0,346.119,267.606Zm0,8.276a2.66,2.66,0,1,0,2.66,2.66A2.66,2.66,0,0,0,346.119,275.882Zm0,8.276a2.66,2.66,0,1,0,2.66,2.66A2.66,2.66,0,0,0,346.119,284.158Zm0,8.276a2.66,2.66,0,1,0,2.66,2.66A2.66,2.66,0,0,0,346.119,292.434Zm0,8.276a2.66,2.66,0,1,0,2.66,2.66A2.66,2.66,0,0,0,346.119,300.711Zm0,8.276a2.66,2.66,0,1,0,2.66,2.66A2.66,2.66,0,0,0,346.119,308.987Zm0,8.276a2.66,2.66,0,1,0,2.66,2.66A2.66,2.66,0,0,0,346.119,317.263Zm0,8.276a2.66,2.66,0,1,0,2.66,2.66A2.66,2.66,0,0,0,346.119,325.539Zm0,8.276a2.66,2.66,0,1,0,2.66,2.66A2.66,2.66,0,0,0,346.119,333.816Zm0,8.276a2.66,2.66,0,1,0,2.66,2.66A2.66,2.66,0,0,0,346.119,342.092Zm0,8.276a2.66,2.66,0,1,0,2.66,2.66A2.66,2.66,0,0,0,346.119,350.368Zm0,8.276a2.66,2.66,0,1,0,2.66,2.66A2.66,2.66,0,0,0,346.119,358.644Zm0,8.276a2.66,2.66,0,1,0,2.66,2.66A2.66,2.66,0,0,0,346.119,366.92Zm0,8.276a2.66,2.66,0,1,0,2.66,2.66A2.66,2.66,0,0,0,346.119,375.2Zm0,8.276a2.66,2.66,0,1,0,2.66,2.66A2.66,2.66,0,0,0,346.119,383.473Zm0,8.276a2.66,2.66,0,1,0,2.66,2.66A2.66,2.66,0,0,0,346.119,391.749Zm0,8.276a2.66,2.66,0,1,0,2.66,2.66A2.66,2.66,0,0,0,346.119,400.025Zm0,8.276a2.66,2.66,0,1,0,2.66,2.66A2.66,2.66,0,0,0,346.119,408.3Zm0,8.276a2.66,2.66,0,1,0,2.66,2.66A2.66,2.66,0,0,0,346.119,416.578Zm0,8.276a2.66,2.66,0,1,0,2.66,2.66A2.66,2.66,0,0,0,346.119,424.854Zm0,8.276a2.66,2.66,0,1,0,2.66,2.66A2.66,2.66,0,0,0,346.119,433.13Zm0,8.276a2.66,2.66,0,1,0,2.66,2.66A2.66,2.66,0,0,0,346.119,441.406Zm0,8.276a2.66,2.66,0,1,0,2.66,2.66A2.66,2.66,0,0,0,346.119,449.683Zm0,8.276a2.66,2.66,0,1,0,2.66,2.66A2.66,2.66,0,0,0,346.119,457.959Zm0,8.276a2.66,2.66,0,1,0,2.66,2.66A2.66,2.66,0,0,0,346.119,466.235Zm0,8.276a2.66,2.66,0,1,0,2.66,2.66A2.66,2.66,0,0,0,346.119,474.511Zm-8.276-347.6a2.66,2.66,0,1,0,2.66,2.66A2.66,2.66,0,0,0,337.843,126.91Zm0,8.276a2.66,2.66,0,1,0,2.66,2.66A2.66,2.66,0,0,0,337.843,135.186Zm0,8.276a2.66,2.66,0,1,0,2.66,2.66A2.66,2.66,0,0,0,337.843,143.462Zm0,8.276a2.66,2.66,0,1,0,2.66,2.66A2.66,2.66,0,0,0,337.843,151.739Zm0,8.276a2.66,2.66,0,1,0,2.66,2.66A2.66,2.66,0,0,0,337.843,160.015Zm0,8.276a2.66,2.66,0,1,0,2.66,2.66A2.66,2.66,0,0,0,337.843,168.291Zm0,8.276a2.66,2.66,0,1,0,2.66,2.66A2.66,2.66,0,0,0,337.843,176.567Zm0,8.276a2.66,2.66,0,1,0,2.66,2.66A2.66,2.66,0,0,0,337.843,184.844Zm0,8.276a2.66,2.66,0,1,0,2.66,2.66A2.66,2.66,0,0,0,337.843,193.12Zm0,8.276a2.66,2.66,0,1,0,2.66,2.66A2.66,2.66,0,0,0,337.843,201.4Zm0,8.276a2.66,2.66,0,1,0,2.66,2.66A2.66,2.66,0,0,0,337.843,209.672Zm0,8.276a2.66,2.66,0,1,0,2.66,2.66A2.66,2.66,0,0,0,337.843,217.948Zm0,8.276a2.66,2.66,0,1,0,2.66,2.66A2.66,2.66,0,0,0,337.843,226.225Zm0,8.276a2.66,2.66,0,1,0,2.66,2.66A2.66,2.66,0,0,0,337.843,234.5Zm0,8.276a2.66,2.66,0,1,0,2.66,2.66A2.66,2.66,0,0,0,337.843,242.777Zm0,8.276a2.66,2.66,0,1,0,2.66,2.66A2.66,2.66,0,0,0,337.843,251.053Zm0,8.276a2.66,2.66,0,1,0,2.66,2.66A2.66,2.66,0,0,0,337.843,259.33Zm0,8.276a2.66,2.66,0,1,0,2.66,2.66A2.66,2.66,0,0,0,337.843,267.606Zm0,8.276a2.66,2.66,0,1,0,2.66,2.66A2.66,2.66,0,0,0,337.843,275.882Zm0,8.276a2.66,2.66,0,1,0,2.66,2.66A2.66,2.66,0,0,0,337.843,284.158Zm0,8.276a2.66,2.66,0,1,0,2.66,2.66A2.66,2.66,0,0,0,337.843,292.434Zm0,8.276a2.66,2.66,0,1,0,2.66,2.66A2.66,2.66,0,0,0,337.843,300.711Zm0,8.276a2.66,2.66,0,1,0,2.66,2.66A2.66,2.66,0,0,0,337.843,308.987Zm0,8.276a2.66,2.66,0,1,0,2.66,2.66A2.66,2.66,0,0,0,337.843,317.263Zm0,8.276a2.66,2.66,0,1,0,2.66,2.66A2.66,2.66,0,0,0,337.843,325.539Zm0,8.276a2.66,2.66,0,1,0,2.66,2.66A2.66,2.66,0,0,0,337.843,333.816Zm0,8.276a2.66,2.66,0,1,0,2.66,2.66A2.66,2.66,0,0,0,337.843,342.092Zm0,8.276a2.66,2.66,0,1,0,2.66,2.66A2.66,2.66,0,0,0,337.843,350.368Zm0,8.276a2.66,2.66,0,1,0,2.66,2.66A2.66,2.66,0,0,0,337.843,358.644Zm0,8.276a2.66,2.66,0,1,0,2.66,2.66A2.66,2.66,0,0,0,337.843,366.92Zm0,8.276a2.66,2.66,0,1,0,2.66,2.66A2.66,2.66,0,0,0,337.843,375.2Zm0,8.276a2.66,2.66,0,1,0,2.66,2.66A2.66,2.66,0,0,0,337.843,383.473Zm0,8.276a2.66,2.66,0,1,0,2.66,2.66A2.66,2.66,0,0,0,337.843,391.749Zm0,8.276a2.66,2.66,0,1,0,2.66,2.66A2.66,2.66,0,0,0,337.843,400.025Zm0,8.276a2.66,2.66,0,1,0,2.66,2.66A2.66,2.66,0,0,0,337.843,408.3Zm0,8.276a2.66,2.66,0,1,0,2.66,2.66A2.66,2.66,0,0,0,337.843,416.578Zm0,8.276a2.66,2.66,0,1,0,2.66,2.66A2.66,2.66,0,0,0,337.843,424.854Zm0,8.276a2.66,2.66,0,1,0,2.66,2.66A2.66,2.66,0,0,0,337.843,433.13Zm0,8.276a2.66,2.66,0,1,0,2.66,2.66A2.66,2.66,0,0,0,337.843,441.406Zm0,8.276a2.66,2.66,0,1,0,2.66,2.66A2.66,2.66,0,0,0,337.843,449.683Zm0,8.276a2.66,2.66,0,1,0,2.66,2.66A2.66,2.66,0,0,0,337.843,457.959Zm0,8.276a2.66,2.66,0,1,0,2.66,2.66A2.66,2.66,0,0,0,337.843,466.235Zm0,8.276a2.66,2.66,0,1,0,2.66,2.66A2.66,2.66,0,0,0,337.843,474.511Zm-8.276-347.6a2.66,2.66,0,1,0,2.66,2.66A2.66,2.66,0,0,0,329.567,126.91Zm0,8.276a2.66,2.66,0,1,0,2.66,2.66A2.66,2.66,0,0,0,329.567,135.186Zm0,8.276a2.66,2.66,0,1,0,2.66,2.66A2.66,2.66,0,0,0,329.567,143.462Zm0,8.276a2.66,2.66,0,1,0,2.66,2.66A2.66,2.66,0,0,0,329.567,151.739Zm0,8.276a2.66,2.66,0,1,0,2.66,2.66A2.66,2.66,0,0,0,329.567,160.015Zm0,8.276a2.66,2.66,0,1,0,2.66,2.66A2.66,2.66,0,0,0,329.567,168.291Zm0,8.276a2.66,2.66,0,1,0,2.66,2.66A2.66,2.66,0,0,0,329.567,176.567Zm0,8.276a2.66,2.66,0,1,0,2.66,2.66A2.66,2.66,0,0,0,329.567,184.844Zm0,8.276a2.66,2.66,0,1,0,2.66,2.66A2.66,2.66,0,0,0,329.567,193.12Zm0,8.276a2.66,2.66,0,1,0,2.66,2.66A2.66,2.66,0,0,0,329.567,201.4Zm0,8.276a2.66,2.66,0,1,0,2.66,2.66A2.66,2.66,0,0,0,329.567,209.672Zm0,8.276a2.66,2.66,0,1,0,2.66,2.66A2.66,2.66,0,0,0,329.567,217.948Zm0,8.276a2.66,2.66,0,1,0,2.66,2.66A2.66,2.66,0,0,0,329.567,226.225Zm0,8.276a2.66,2.66,0,1,0,2.66,2.66A2.66,2.66,0,0,0,329.567,234.5Zm0,8.276a2.66,2.66,0,1,0,2.66,2.66A2.66,2.66,0,0,0,329.567,242.777Zm0,8.276a2.66,2.66,0,1,0,2.66,2.66A2.66,2.66,0,0,0,329.567,251.053Zm0,8.276a2.66,2.66,0,1,0,2.66,2.66A2.66,2.66,0,0,0,329.567,259.33Zm0,8.276a2.66,2.66,0,1,0,2.66,2.66A2.66,2.66,0,0,0,329.567,267.606Zm0,8.276a2.66,2.66,0,1,0,2.66,2.66A2.66,2.66,0,0,0,329.567,275.882Zm0,8.276a2.66,2.66,0,1,0,2.66,2.66A2.66,2.66,0,0,0,329.567,284.158Zm0,8.276a2.66,2.66,0,1,0,2.66,2.66A2.66,2.66,0,0,0,329.567,292.434Zm0,8.276a2.66,2.66,0,1,0,2.66,2.66A2.66,2.66,0,0,0,329.567,300.711Zm0,8.276a2.66,2.66,0,1,0,2.66,2.66A2.66,2.66,0,0,0,329.567,308.987Zm0,8.276a2.66,2.66,0,1,0,2.66,2.66A2.66,2.66,0,0,0,329.567,317.263Zm0,8.276a2.66,2.66,0,1,0,2.66,2.66A2.66,2.66,0,0,0,329.567,325.539Zm0,8.276a2.66,2.66,0,1,0,2.66,2.66A2.66,2.66,0,0,0,329.567,333.816Zm0,8.276a2.66,2.66,0,1,0,2.66,2.66A2.66,2.66,0,0,0,329.567,342.092Zm0,8.276a2.66,2.66,0,1,0,2.66,2.66A2.66,2.66,0,0,0,329.567,350.368Zm0,8.276a2.66,2.66,0,1,0,2.66,2.66A2.66,2.66,0,0,0,329.567,358.644Zm0,8.276a2.66,2.66,0,1,0,2.66,2.66A2.66,2.66,0,0,0,329.567,366.92Zm0,8.276a2.66,2.66,0,1,0,2.66,2.66A2.66,2.66,0,0,0,329.567,375.2Zm0,8.276a2.66,2.66,0,1,0,2.66,2.66A2.66,2.66,0,0,0,329.567,383.473Zm0,8.276a2.66,2.66,0,1,0,2.66,2.66A2.66,2.66,0,0,0,329.567,391.749Zm0,8.276a2.66,2.66,0,1,0,2.66,2.66A2.66,2.66,0,0,0,329.567,400.025Zm0,8.276a2.66,2.66,0,1,0,2.66,2.66A2.66,2.66,0,0,0,329.567,408.3Zm0,8.276a2.66,2.66,0,1,0,2.66,2.66A2.66,2.66,0,0,0,329.567,416.578Zm0,8.276a2.66,2.66,0,1,0,2.66,2.66A2.66,2.66,0,0,0,329.567,424.854Zm0,24.829a2.66,2.66,0,1,0,2.66,2.66A2.66,2.66,0,0,0,329.567,449.683Zm0,8.276a2.66,2.66,0,1,0,2.66,2.66A2.66,2.66,0,0,0,329.567,457.959Zm0,8.276a2.66,2.66,0,1,0,2.66,2.66A2.66,2.66,0,0,0,329.567,466.235Zm0,8.276a2.66,2.66,0,1,0,2.66,2.66A2.66,2.66,0,0,0,329.567,474.511Zm-8.276-347.6a2.66,2.66,0,1,0,2.66,2.66A2.66,2.66,0,0,0,321.291,126.91Zm0,8.276a2.66,2.66,0,1,0,2.66,2.66A2.66,2.66,0,0,0,321.291,135.186Zm0,8.276a2.66,2.66,0,1,0,2.66,2.66A2.66,2.66,0,0,0,321.291,143.462Zm0,8.276a2.66,2.66,0,1,0,2.66,2.66A2.66,2.66,0,0,0,321.291,151.739Zm0,8.276a2.66,2.66,0,1,0,2.66,2.66A2.66,2.66,0,0,0,321.291,160.015Zm0,8.276a2.66,2.66,0,1,0,2.66,2.66A2.66,2.66,0,0,0,321.291,168.291Zm0,8.276a2.66,2.66,0,1,0,2.66,2.66A2.66,2.66,0,0,0,321.291,176.567Zm0,8.276a2.66,2.66,0,1,0,2.66,2.66A2.66,2.66,0,0,0,321.291,184.844Zm0,8.276a2.66,2.66,0,1,0,2.66,2.66A2.66,2.66,0,0,0,321.291,193.12Zm0,8.276a2.66,2.66,0,1,0,2.66,2.66A2.66,2.66,0,0,0,321.291,201.4Zm0,8.276a2.66,2.66,0,1,0,2.66,2.66A2.66,2.66,0,0,0,321.291,209.672Zm0,8.276a2.66,2.66,0,1,0,2.66,2.66A2.66,2.66,0,0,0,321.291,217.948Zm0,8.276a2.66,2.66,0,1,0,2.66,2.66A2.66,2.66,0,0,0,321.291,226.225Zm0,8.276a2.66,2.66,0,1,0,2.66,2.66A2.66,2.66,0,0,0,321.291,234.5Zm0,8.276a2.66,2.66,0,1,0,2.66,2.66A2.66,2.66,0,0,0,321.291,242.777Zm0,8.276a2.66,2.66,0,1,0,2.66,2.66A2.66,2.66,0,0,0,321.291,251.053Zm0,8.276a2.66,2.66,0,1,0,2.66,2.66A2.66,2.66,0,0,0,321.291,259.33Zm0,8.276a2.66,2.66,0,1,0,2.66,2.66A2.66,2.66,0,0,0,321.291,267.606Zm0,8.276a2.66,2.66,0,1,0,2.66,2.66A2.66,2.66,0,0,0,321.291,275.882Zm0,8.276a2.66,2.66,0,1,0,2.66,2.66A2.66,2.66,0,0,0,321.291,284.158Zm0,8.276a2.66,2.66,0,1,0,2.66,2.66A2.66,2.66,0,0,0,321.291,292.434Zm0,8.276a2.66,2.66,0,1,0,2.66,2.66A2.66,2.66,0,0,0,321.291,300.711Zm0,8.276a2.66,2.66,0,1,0,2.66,2.66A2.66,2.66,0,0,0,321.291,308.987Zm0,8.276a2.66,2.66,0,1,0,2.66,2.66A2.66,2.66,0,0,0,321.291,317.263Zm0,8.276a2.66,2.66,0,1,0,2.66,2.66A2.66,2.66,0,0,0,321.291,325.539Zm0,8.276a2.66,2.66,0,1,0,2.66,2.66A2.66,2.66,0,0,0,321.291,333.816Zm0,8.276a2.66,2.66,0,1,0,2.66,2.66A2.66,2.66,0,0,0,321.291,342.092Zm0,8.276a2.66,2.66,0,1,0,2.66,2.66A2.66,2.66,0,0,0,321.291,350.368Zm0,8.276a2.66,2.66,0,1,0,2.66,2.66A2.66,2.66,0,0,0,321.291,358.644Zm0,8.276a2.66,2.66,0,1,0,2.66,2.66A2.66,2.66,0,0,0,321.291,366.92Zm0,8.276a2.66,2.66,0,1,0,2.66,2.66A2.66,2.66,0,0,0,321.291,375.2Zm0,8.276a2.66,2.66,0,1,0,2.66,2.66A2.66,2.66,0,0,0,321.291,383.473Zm0,8.276a2.66,2.66,0,1,0,2.66,2.66A2.66,2.66,0,0,0,321.291,391.749Zm0,8.276a2.66,2.66,0,1,0,2.66,2.66A2.66,2.66,0,0,0,321.291,400.025Zm0,8.276a2.66,2.66,0,1,0,2.66,2.66A2.66,2.66,0,0,0,321.291,408.3Zm0,8.276a2.66,2.66,0,1,0,2.66,2.66A2.66,2.66,0,0,0,321.291,416.578Zm0,8.276a2.66,2.66,0,1,0,2.66,2.66A2.66,2.66,0,0,0,321.291,424.854Zm0,8.276a2.66,2.66,0,1,0,2.66,2.66A2.66,2.66,0,0,0,321.291,433.13Zm0,8.276a2.66,2.66,0,1,0,2.66,2.66A2.66,2.66,0,0,0,321.291,441.406Zm0,16.552a2.66,2.66,0,1,0,2.66,2.66A2.66,2.66,0,0,0,321.291,457.959Zm0,8.276a2.66,2.66,0,1,0,2.66,2.66A2.66,2.66,0,0,0,321.291,466.235Zm-8.276-331.049a2.66,2.66,0,1,0,2.66,2.66A2.66,2.66,0,0,0,313.014,135.186Zm0,8.276a2.66,2.66,0,1,0,2.66,2.66A2.66,2.66,0,0,0,313.014,143.462Zm0,8.276a2.66,2.66,0,1,0,2.66,2.66A2.66,2.66,0,0,0,313.014,151.739Zm0,8.276a2.66,2.66,0,1,0,2.66,2.66A2.66,2.66,0,0,0,313.014,160.015Zm0,8.276a2.66,2.66,0,1,0,2.66,2.66A2.66,2.66,0,0,0,313.014,168.291Zm0,8.276a2.66,2.66,0,1,0,2.66,2.66A2.66,2.66,0,0,0,313.014,176.567Zm0,8.276a2.66,2.66,0,1,0,2.66,2.66A2.66,2.66,0,0,0,313.014,184.844Zm0,8.276a2.66,2.66,0,1,0,2.66,2.66A2.66,2.66,0,0,0,313.014,193.12Zm0,8.276a2.66,2.66,0,1,0,2.66,2.66A2.66,2.66,0,0,0,313.014,201.4Zm0,8.276a2.66,2.66,0,1,0,2.66,2.66A2.66,2.66,0,0,0,313.014,209.672Zm0,8.276a2.66,2.66,0,1,0,2.66,2.66A2.66,2.66,0,0,0,313.014,217.948Zm0,8.276a2.66,2.66,0,1,0,2.66,2.66A2.66,2.66,0,0,0,313.014,226.225Zm0,8.276a2.66,2.66,0,1,0,2.66,2.66A2.66,2.66,0,0,0,313.014,234.5Zm0,8.276a2.66,2.66,0,1,0,2.66,2.66A2.66,2.66,0,0,0,313.014,242.777Zm0,8.276a2.66,2.66,0,1,0,2.66,2.66A2.66,2.66,0,0,0,313.014,251.053Zm0,8.276a2.66,2.66,0,1,0,2.66,2.66A2.66,2.66,0,0,0,313.014,259.33Zm0,8.276a2.66,2.66,0,1,0,2.66,2.66A2.66,2.66,0,0,0,313.014,267.606Zm0,8.276a2.66,2.66,0,1,0,2.66,2.66A2.66,2.66,0,0,0,313.014,275.882Zm0,8.276a2.66,2.66,0,1,0,2.66,2.66A2.66,2.66,0,0,0,313.014,284.158Zm0,8.276a2.66,2.66,0,1,0,2.66,2.66A2.66,2.66,0,0,0,313.014,292.434Zm0,8.276a2.66,2.66,0,1,0,2.66,2.66A2.66,2.66,0,0,0,313.014,300.711Zm0,8.276a2.66,2.66,0,1,0,2.66,2.66A2.66,2.66,0,0,0,313.014,308.987Zm0,16.552a2.66,2.66,0,1,0,2.66,2.66A2.66,2.66,0,0,0,313.014,325.539Zm0,8.276a2.66,2.66,0,1,0,2.66,2.66A2.66,2.66,0,0,0,313.014,333.816Zm0,8.276a2.66,2.66,0,1,0,2.66,2.66A2.66,2.66,0,0,0,313.014,342.092Zm0,8.276a2.66,2.66,0,1,0,2.66,2.66A2.66,2.66,0,0,0,313.014,350.368Zm0,8.276a2.66,2.66,0,1,0,2.66,2.66A2.66,2.66,0,0,0,313.014,358.644Zm0,8.276a2.66,2.66,0,1,0,2.66,2.66A2.66,2.66,0,0,0,313.014,366.92Zm0,8.276a2.66,2.66,0,1,0,2.66,2.66A2.66,2.66,0,0,0,313.014,375.2Zm0,8.276a2.66,2.66,0,1,0,2.66,2.66A2.66,2.66,0,0,0,313.014,383.473Zm0,8.276a2.66,2.66,0,1,0,2.66,2.66A2.66,2.66,0,0,0,313.014,391.749Zm0,8.276a2.66,2.66,0,1,0,2.66,2.66A2.66,2.66,0,0,0,313.014,400.025Zm0,8.276a2.66,2.66,0,1,0,2.66,2.66A2.66,2.66,0,0,0,313.014,408.3Zm0,8.276a2.66,2.66,0,1,0,2.66,2.66A2.66,2.66,0,0,0,313.014,416.578Zm0,8.276a2.66,2.66,0,1,0,2.66,2.66A2.66,2.66,0,0,0,313.014,424.854Zm0,8.276a2.66,2.66,0,1,0,2.66,2.66A2.66,2.66,0,0,0,313.014,433.13Zm0,8.276a2.66,2.66,0,1,0,2.66,2.66A2.66,2.66,0,0,0,313.014,441.406Zm0,8.276a2.66,2.66,0,1,0,2.66,2.66A2.66,2.66,0,0,0,313.014,449.683Zm0,8.276a2.66,2.66,0,1,0,2.66,2.66A2.66,2.66,0,0,0,313.014,457.959ZM304.738,126.91a2.66,2.66,0,1,0,2.66,2.66A2.66,2.66,0,0,0,304.738,126.91Zm0,8.276a2.66,2.66,0,1,0,2.66,2.66A2.66,2.66,0,0,0,304.738,135.186Zm0,8.276a2.66,2.66,0,1,0,2.66,2.66A2.66,2.66,0,0,0,304.738,143.462Zm0,8.276a2.66,2.66,0,1,0,2.66,2.66A2.66,2.66,0,0,0,304.738,151.739Zm0,8.276a2.66,2.66,0,1,0,2.66,2.66A2.66,2.66,0,0,0,304.738,160.015Zm0,8.276a2.66,2.66,0,1,0,2.66,2.66A2.66,2.66,0,0,0,304.738,168.291Zm0,8.276a2.66,2.66,0,1,0,2.66,2.66A2.66,2.66,0,0,0,304.738,176.567Zm0,8.276a2.66,2.66,0,1,0,2.66,2.66A2.66,2.66,0,0,0,304.738,184.844Zm0,8.276a2.66,2.66,0,1,0,2.66,2.66A2.66,2.66,0,0,0,304.738,193.12Zm0,8.276a2.66,2.66,0,1,0,2.66,2.66A2.66,2.66,0,0,0,304.738,201.4Zm0,8.276a2.66,2.66,0,1,0,2.66,2.66A2.66,2.66,0,0,0,304.738,209.672Zm0,8.276a2.66,2.66,0,1,0,2.66,2.66A2.66,2.66,0,0,0,304.738,217.948Zm0,8.276a2.66,2.66,0,1,0,2.66,2.66A2.66,2.66,0,0,0,304.738,226.225Zm0,8.276a2.66,2.66,0,1,0,2.66,2.66A2.66,2.66,0,0,0,304.738,234.5Zm0,8.276a2.66,2.66,0,1,0,2.66,2.66A2.66,2.66,0,0,0,304.738,242.777Zm0,8.276a2.66,2.66,0,1,0,2.66,2.66A2.66,2.66,0,0,0,304.738,251.053Zm0,8.276a2.66,2.66,0,1,0,2.66,2.66A2.66,2.66,0,0,0,304.738,259.33Zm0,8.276a2.66,2.66,0,1,0,2.66,2.66A2.66,2.66,0,0,0,304.738,267.606Zm0,8.276a2.66,2.66,0,1,0,2.66,2.66A2.66,2.66,0,0,0,304.738,275.882Zm0,8.276a2.66,2.66,0,1,0,2.66,2.66A2.66,2.66,0,0,0,304.738,284.158Zm0,8.276a2.66,2.66,0,1,0,2.66,2.66A2.66,2.66,0,0,0,304.738,292.434Zm0,8.276a2.66,2.66,0,1,0,2.66,2.66A2.66,2.66,0,0,0,304.738,300.711Zm0,8.276a2.66,2.66,0,1,0,2.66,2.66A2.66,2.66,0,0,0,304.738,308.987Zm0,8.276a2.66,2.66,0,1,0,2.66,2.66A2.66,2.66,0,0,0,304.738,317.263Zm0,8.276a2.66,2.66,0,1,0,2.66,2.66A2.66,2.66,0,0,0,304.738,325.539Zm0,8.276a2.66,2.66,0,1,0,2.66,2.66A2.66,2.66,0,0,0,304.738,333.816Zm0,8.276a2.66,2.66,0,1,0,2.66,2.66A2.66,2.66,0,0,0,304.738,342.092Zm0,8.276a2.66,2.66,0,1,0,2.66,2.66A2.66,2.66,0,0,0,304.738,350.368Zm0,8.276a2.66,2.66,0,1,0,2.66,2.66A2.66,2.66,0,0,0,304.738,358.644Zm0,8.276a2.66,2.66,0,1,0,2.66,2.66A2.66,2.66,0,0,0,304.738,366.92Zm0,8.276a2.66,2.66,0,1,0,2.66,2.66A2.66,2.66,0,0,0,304.738,375.2Zm0,8.276a2.66,2.66,0,1,0,2.66,2.66A2.66,2.66,0,0,0,304.738,383.473Zm0,8.276a2.66,2.66,0,1,0,2.66,2.66A2.66,2.66,0,0,0,304.738,391.749Zm0,8.276a2.66,2.66,0,1,0,2.66,2.66A2.66,2.66,0,0,0,304.738,400.025Zm0,8.276a2.66,2.66,0,1,0,2.66,2.66A2.66,2.66,0,0,0,304.738,408.3Zm0,8.276a2.66,2.66,0,1,0,2.66,2.66A2.66,2.66,0,0,0,304.738,416.578Zm0,8.276a2.66,2.66,0,1,0,2.66,2.66A2.66,2.66,0,0,0,304.738,424.854Zm0,8.276a2.66,2.66,0,1,0,2.66,2.66A2.66,2.66,0,0,0,304.738,433.13Zm-8.276-306.22a2.66,2.66,0,1,0,2.66,2.66A2.66,2.66,0,0,0,296.462,126.91Zm0,8.276a2.66,2.66,0,1,0,2.66,2.66A2.66,2.66,0,0,0,296.462,135.186Zm0,8.276a2.66,2.66,0,1,0,2.66,2.66A2.66,2.66,0,0,0,296.462,143.462Zm0,8.276a2.66,2.66,0,1,0,2.66,2.66A2.66,2.66,0,0,0,296.462,151.739Zm0,8.276a2.66,2.66,0,1,0,2.66,2.66A2.66,2.66,0,0,0,296.462,160.015Zm0,8.276a2.66,2.66,0,1,0,2.66,2.66A2.66,2.66,0,0,0,296.462,168.291Zm0,8.276a2.66,2.66,0,1,0,2.66,2.66A2.66,2.66,0,0,0,296.462,176.567Zm0,8.276a2.66,2.66,0,1,0,2.66,2.66A2.66,2.66,0,0,0,296.462,184.844Zm0,8.276a2.66,2.66,0,1,0,2.66,2.66A2.66,2.66,0,0,0,296.462,193.12Zm0,8.276a2.66,2.66,0,1,0,2.66,2.66A2.66,2.66,0,0,0,296.462,201.4Zm0,8.276a2.66,2.66,0,1,0,2.66,2.66A2.66,2.66,0,0,0,296.462,209.672Zm0,8.276a2.66,2.66,0,1,0,2.66,2.66A2.66,2.66,0,0,0,296.462,217.948Zm0,8.276a2.66,2.66,0,1,0,2.66,2.66A2.66,2.66,0,0,0,296.462,226.225Zm0,8.276a2.66,2.66,0,1,0,2.66,2.66A2.66,2.66,0,0,0,296.462,234.5Zm0,8.276a2.66,2.66,0,1,0,2.66,2.66A2.66,2.66,0,0,0,296.462,242.777Zm0,8.276a2.66,2.66,0,1,0,2.66,2.66A2.66,2.66,0,0,0,296.462,251.053Zm0,8.276a2.66,2.66,0,1,0,2.66,2.66A2.66,2.66,0,0,0,296.462,259.33Zm0,8.276a2.66,2.66,0,1,0,2.66,2.66A2.66,2.66,0,0,0,296.462,267.606Zm0,8.276a2.66,2.66,0,1,0,2.66,2.66A2.66,2.66,0,0,0,296.462,275.882Zm0,8.276a2.66,2.66,0,1,0,2.66,2.66A2.66,2.66,0,0,0,296.462,284.158Zm0,24.829a2.66,2.66,0,1,0,2.66,2.66A2.66,2.66,0,0,0,296.462,308.987Zm0,8.276a2.66,2.66,0,1,0,2.66,2.66A2.66,2.66,0,0,0,296.462,317.263Zm0,8.276a2.66,2.66,0,1,0,2.66,2.66A2.66,2.66,0,0,0,296.462,325.539Zm0,8.276a2.66,2.66,0,1,0,2.66,2.66A2.66,2.66,0,0,0,296.462,333.816Zm0,8.276a2.66,2.66,0,1,0,2.66,2.66A2.66,2.66,0,0,0,296.462,342.092Zm0,33.1a2.66,2.66,0,1,0,2.66,2.66A2.66,2.66,0,0,0,296.462,375.2Zm0,8.276a2.66,2.66,0,1,0,2.66,2.66A2.66,2.66,0,0,0,296.462,383.473Zm0,8.276a2.66,2.66,0,1,0,2.66,2.66A2.66,2.66,0,0,0,296.462,391.749Zm0,8.276a2.66,2.66,0,1,0,2.66,2.66A2.66,2.66,0,0,0,296.462,400.025Zm0,8.276a2.66,2.66,0,1,0,2.66,2.66A2.66,2.66,0,0,0,296.462,408.3Zm-8.276-289.668a2.66,2.66,0,1,0,2.66,2.66A2.66,2.66,0,0,0,288.186,118.634Zm0,8.276a2.66,2.66,0,1,0,2.66,2.66A2.66,2.66,0,0,0,288.186,126.91Zm0,8.276a2.66,2.66,0,1,0,2.66,2.66A2.66,2.66,0,0,0,288.186,135.186Zm0,8.276a2.66,2.66,0,1,0,2.66,2.66A2.66,2.66,0,0,0,288.186,143.462Zm0,8.276a2.66,2.66,0,1,0,2.66,2.66A2.66,2.66,0,0,0,288.186,151.739Zm0,8.276a2.66,2.66,0,1,0,2.66,2.66A2.66,2.66,0,0,0,288.186,160.015Zm0,8.276a2.66,2.66,0,1,0,2.66,2.66A2.66,2.66,0,0,0,288.186,168.291Zm0,8.276a2.66,2.66,0,1,0,2.66,2.66A2.66,2.66,0,0,0,288.186,176.567Zm0,8.276a2.66,2.66,0,1,0,2.66,2.66A2.66,2.66,0,0,0,288.186,184.844Zm0,8.276a2.66,2.66,0,1,0,2.66,2.66A2.66,2.66,0,0,0,288.186,193.12Zm0,8.276a2.66,2.66,0,1,0,2.66,2.66A2.66,2.66,0,0,0,288.186,201.4Zm0,8.276a2.66,2.66,0,1,0,2.66,2.66A2.66,2.66,0,0,0,288.186,209.672Zm0,8.276a2.66,2.66,0,1,0,2.66,2.66A2.66,2.66,0,0,0,288.186,217.948Zm0,8.276a2.66,2.66,0,1,0,2.66,2.66A2.66,2.66,0,0,0,288.186,226.225Zm0,8.276a2.66,2.66,0,1,0,2.66,2.66A2.66,2.66,0,0,0,288.186,234.5Zm0,8.276a2.66,2.66,0,1,0,2.66,2.66A2.66,2.66,0,0,0,288.186,242.777Zm0,8.276a2.66,2.66,0,1,0,2.66,2.66A2.66,2.66,0,0,0,288.186,251.053Zm0,8.276a2.66,2.66,0,1,0,2.66,2.66A2.66,2.66,0,0,0,288.186,259.33Zm0,8.276a2.66,2.66,0,1,0,2.66,2.66A2.66,2.66,0,0,0,288.186,267.606Zm0,8.276a2.66,2.66,0,1,0,2.66,2.66A2.66,2.66,0,0,0,288.186,275.882Zm0,8.276a2.66,2.66,0,1,0,2.66,2.66A2.66,2.66,0,0,0,288.186,284.158Zm0,8.276a2.66,2.66,0,1,0,2.66,2.66A2.66,2.66,0,0,0,288.186,292.434Zm0,8.276a2.66,2.66,0,1,0,2.66,2.66A2.66,2.66,0,0,0,288.186,300.711Zm0,8.276a2.66,2.66,0,1,0,2.66,2.66A2.66,2.66,0,0,0,288.186,308.987Zm0,8.276a2.66,2.66,0,1,0,2.66,2.66A2.66,2.66,0,0,0,288.186,317.263Zm0,8.276a2.66,2.66,0,1,0,2.66,2.66A2.66,2.66,0,0,0,288.186,325.539ZM279.91,118.634a2.66,2.66,0,1,0,2.66,2.66A2.66,2.66,0,0,0,279.91,118.634Zm0,8.276a2.66,2.66,0,1,0,2.66,2.66A2.66,2.66,0,0,0,279.91,126.91Zm0,8.276a2.66,2.66,0,1,0,2.66,2.66A2.66,2.66,0,0,0,279.91,135.186Zm0,8.276a2.66,2.66,0,1,0,2.66,2.66A2.66,2.66,0,0,0,279.91,143.462Zm0,8.276a2.66,2.66,0,1,0,2.66,2.66A2.66,2.66,0,0,0,279.91,151.739Zm0,8.276a2.66,2.66,0,1,0,2.66,2.66A2.66,2.66,0,0,0,279.91,160.015Zm0,8.276a2.66,2.66,0,1,0,2.66,2.66A2.66,2.66,0,0,0,279.91,168.291Zm0,8.276a2.66,2.66,0,1,0,2.66,2.66A2.66,2.66,0,0,0,279.91,176.567Zm0,8.276a2.66,2.66,0,1,0,2.66,2.66A2.66,2.66,0,0,0,279.91,184.844Zm0,8.276a2.66,2.66,0,1,0,2.66,2.66A2.66,2.66,0,0,0,279.91,193.12Zm0,8.276a2.66,2.66,0,1,0,2.66,2.66A2.66,2.66,0,0,0,279.91,201.4Zm0,8.276a2.66,2.66,0,1,0,2.66,2.66A2.66,2.66,0,0,0,279.91,209.672Zm0,8.276a2.66,2.66,0,1,0,2.66,2.66A2.66,2.66,0,0,0,279.91,217.948Zm0,8.276a2.66,2.66,0,1,0,2.66,2.66A2.66,2.66,0,0,0,279.91,226.225Zm0,8.276a2.66,2.66,0,1,0,2.66,2.66A2.66,2.66,0,0,0,279.91,234.5Zm0,8.276a2.66,2.66,0,1,0,2.66,2.66A2.66,2.66,0,0,0,279.91,242.777Zm0,8.276a2.66,2.66,0,1,0,2.66,2.66A2.66,2.66,0,0,0,279.91,251.053Zm0,8.276a2.66,2.66,0,1,0,2.66,2.66A2.66,2.66,0,0,0,279.91,259.33Zm0,8.276a2.66,2.66,0,1,0,2.66,2.66A2.66,2.66,0,0,0,279.91,267.606Zm0,8.276a2.66,2.66,0,1,0,2.66,2.66A2.66,2.66,0,0,0,279.91,275.882Zm0,8.276a2.66,2.66,0,1,0,2.66,2.66A2.66,2.66,0,0,0,279.91,284.158Zm0,8.276a2.66,2.66,0,1,0,2.66,2.66A2.66,2.66,0,0,0,279.91,292.434Zm0,8.276a2.66,2.66,0,1,0,2.66,2.66A2.66,2.66,0,0,0,279.91,300.711Zm0,8.276a2.66,2.66,0,1,0,2.66,2.66A2.66,2.66,0,0,0,279.91,308.987Zm-8.276-190.353a2.66,2.66,0,1,0,2.66,2.66A2.66,2.66,0,0,0,271.633,118.634Zm0,8.276a2.66,2.66,0,1,0,2.66,2.66A2.66,2.66,0,0,0,271.633,126.91Zm0,8.276a2.66,2.66,0,1,0,2.66,2.66A2.66,2.66,0,0,0,271.633,135.186Zm0,8.276a2.66,2.66,0,1,0,2.66,2.66A2.66,2.66,0,0,0,271.633,143.462Zm0,8.276a2.66,2.66,0,1,0,2.66,2.66A2.66,2.66,0,0,0,271.633,151.739Zm0,8.276a2.66,2.66,0,1,0,2.66,2.66A2.66,2.66,0,0,0,271.633,160.015Zm0,8.276a2.66,2.66,0,1,0,2.66,2.66A2.66,2.66,0,0,0,271.633,168.291Zm0,8.276a2.66,2.66,0,1,0,2.66,2.66A2.66,2.66,0,0,0,271.633,176.567Zm0,8.276a2.66,2.66,0,1,0,2.66,2.66A2.66,2.66,0,0,0,271.633,184.844Zm0,8.276a2.66,2.66,0,1,0,2.66,2.66A2.66,2.66,0,0,0,271.633,193.12Zm0,8.276a2.66,2.66,0,1,0,2.66,2.66A2.66,2.66,0,0,0,271.633,201.4Zm0,8.276a2.66,2.66,0,1,0,2.66,2.66A2.66,2.66,0,0,0,271.633,209.672Zm0,8.276a2.66,2.66,0,1,0,2.66,2.66A2.66,2.66,0,0,0,271.633,217.948Zm0,8.276a2.66,2.66,0,1,0,2.66,2.66A2.66,2.66,0,0,0,271.633,226.225Zm0,8.276a2.66,2.66,0,1,0,2.66,2.66A2.66,2.66,0,0,0,271.633,234.5Zm0,8.276a2.66,2.66,0,1,0,2.66,2.66A2.66,2.66,0,0,0,271.633,242.777Zm0,8.276a2.66,2.66,0,1,0,2.66,2.66A2.66,2.66,0,0,0,271.633,251.053Zm0,8.276a2.66,2.66,0,1,0,2.66,2.66A2.66,2.66,0,0,0,271.633,259.33Zm0,8.276a2.66,2.66,0,1,0,2.66,2.66A2.66,2.66,0,0,0,271.633,267.606Zm-8.276-157.248a2.66,2.66,0,1,0,2.66,2.66A2.66,2.66,0,0,0,263.357,110.358Zm0,8.276a2.66,2.66,0,1,0,2.66,2.66A2.66,2.66,0,0,0,263.357,118.634Zm0,8.276a2.66,2.66,0,1,0,2.66,2.66A2.66,2.66,0,0,0,263.357,126.91Zm0,8.276a2.66,2.66,0,1,0,2.66,2.66A2.66,2.66,0,0,0,263.357,135.186Zm0,8.276a2.66,2.66,0,1,0,2.66,2.66A2.66,2.66,0,0,0,263.357,143.462Zm0,8.276a2.66,2.66,0,1,0,2.66,2.66A2.66,2.66,0,0,0,263.357,151.739Zm0,8.276a2.66,2.66,0,1,0,2.66,2.66A2.66,2.66,0,0,0,263.357,160.015Zm0,8.276a2.66,2.66,0,1,0,2.66,2.66A2.66,2.66,0,0,0,263.357,168.291Zm0,8.276a2.66,2.66,0,1,0,2.66,2.66A2.66,2.66,0,0,0,263.357,176.567Zm0,8.276a2.66,2.66,0,1,0,2.66,2.66A2.66,2.66,0,0,0,263.357,184.844Zm0,8.276a2.66,2.66,0,1,0,2.66,2.66A2.66,2.66,0,0,0,263.357,193.12Zm0,8.276a2.66,2.66,0,1,0,2.66,2.66A2.66,2.66,0,0,0,263.357,201.4Zm0,8.276a2.66,2.66,0,1,0,2.66,2.66A2.66,2.66,0,0,0,263.357,209.672Zm0,8.276a2.66,2.66,0,1,0,2.66,2.66A2.66,2.66,0,0,0,263.357,217.948Zm0,8.276a2.66,2.66,0,1,0,2.66,2.66A2.66,2.66,0,0,0,263.357,226.225Zm0,8.276a2.66,2.66,0,1,0,2.66,2.66A2.66,2.66,0,0,0,263.357,234.5Zm0,8.276a2.66,2.66,0,1,0,2.66,2.66A2.66,2.66,0,0,0,263.357,242.777Zm0,8.276a2.66,2.66,0,1,0,2.66,2.66A2.66,2.66,0,0,0,263.357,251.053Zm0,8.276a2.66,2.66,0,1,0,2.66,2.66A2.66,2.66,0,0,0,263.357,259.33Zm-8.276-148.972a2.66,2.66,0,1,0,2.66,2.66A2.66,2.66,0,0,0,255.081,110.358Zm0,8.276a2.66,2.66,0,1,0,2.66,2.66A2.66,2.66,0,0,0,255.081,118.634Zm0,8.276a2.66,2.66,0,1,0,2.66,2.66A2.66,2.66,0,0,0,255.081,126.91Zm0,8.276a2.66,2.66,0,1,0,2.66,2.66A2.66,2.66,0,0,0,255.081,135.186Zm0,8.276a2.66,2.66,0,1,0,2.66,2.66A2.66,2.66,0,0,0,255.081,143.462Zm0,8.276a2.66,2.66,0,1,0,2.66,2.66A2.66,2.66,0,0,0,255.081,151.739Zm0,8.276a2.66,2.66,0,1,0,2.66,2.66A2.66,2.66,0,0,0,255.081,160.015Zm0,8.276a2.66,2.66,0,1,0,2.66,2.66A2.66,2.66,0,0,0,255.081,168.291Zm0,8.276a2.66,2.66,0,1,0,2.66,2.66A2.66,2.66,0,0,0,255.081,176.567Zm0,8.276a2.66,2.66,0,1,0,2.66,2.66A2.66,2.66,0,0,0,255.081,184.844Zm0,8.276a2.66,2.66,0,1,0,2.66,2.66A2.66,2.66,0,0,0,255.081,193.12Zm0,8.276a2.66,2.66,0,1,0,2.66,2.66A2.66,2.66,0,0,0,255.081,201.4Zm0,8.276a2.66,2.66,0,1,0,2.66,2.66A2.66,2.66,0,0,0,255.081,209.672Zm0,8.276a2.66,2.66,0,1,0,2.66,2.66A2.66,2.66,0,0,0,255.081,217.948Zm0,8.276a2.66,2.66,0,1,0,2.66,2.66A2.66,2.66,0,0,0,255.081,226.225Zm0,16.552a2.66,2.66,0,1,0,2.66,2.66A2.66,2.66,0,0,0,255.081,242.777Zm0,8.276a2.66,2.66,0,1,0,2.66,2.66A2.66,2.66,0,0,0,255.081,251.053ZM246.8,93.805a2.66,2.66,0,1,0,2.66,2.66A2.66,2.66,0,0,0,246.8,93.805Zm0,16.552a2.66,2.66,0,1,0,2.66,2.66A2.66,2.66,0,0,0,246.8,110.358Zm0,8.276a2.66,2.66,0,1,0,2.66,2.66A2.66,2.66,0,0,0,246.8,118.634Zm0,8.276a2.66,2.66,0,1,0,2.66,2.66A2.66,2.66,0,0,0,246.8,126.91Zm0,8.276a2.66,2.66,0,1,0,2.66,2.66A2.66,2.66,0,0,0,246.8,135.186Zm0,8.276a2.66,2.66,0,1,0,2.66,2.66A2.66,2.66,0,0,0,246.8,143.462Zm0,8.276a2.66,2.66,0,1,0,2.66,2.66A2.66,2.66,0,0,0,246.8,151.739Zm0,8.276a2.66,2.66,0,1,0,2.66,2.66A2.66,2.66,0,0,0,246.8,160.015Zm0,8.276a2.66,2.66,0,1,0,2.66,2.66A2.66,2.66,0,0,0,246.8,168.291Zm0,8.276a2.66,2.66,0,1,0,2.66,2.66A2.66,2.66,0,0,0,246.8,176.567Zm0,8.276a2.66,2.66,0,1,0,2.66,2.66A2.66,2.66,0,0,0,246.8,184.844Zm0,8.276a2.66,2.66,0,1,0,2.66,2.66A2.66,2.66,0,0,0,246.8,193.12Zm0,8.276a2.66,2.66,0,1,0,2.66,2.66A2.66,2.66,0,0,0,246.8,201.4Zm0,8.276a2.66,2.66,0,1,0,2.66,2.66A2.66,2.66,0,0,0,246.8,209.672Zm0,8.276a2.66,2.66,0,1,0,2.66,2.66A2.66,2.66,0,0,0,246.8,217.948Zm0,8.276a2.66,2.66,0,1,0,2.66,2.66A2.66,2.66,0,0,0,246.8,226.225Zm0,8.276a2.66,2.66,0,1,0,2.66,2.66A2.66,2.66,0,0,0,246.8,234.5Zm0,8.276a2.66,2.66,0,1,0,2.66,2.66A2.66,2.66,0,0,0,246.8,242.777ZM238.529,85.529a2.66,2.66,0,1,0,2.66,2.66A2.66,2.66,0,0,0,238.529,85.529Zm0,8.276a2.66,2.66,0,1,0,2.66,2.66A2.66,2.66,0,0,0,238.529,93.805Zm0,8.276a2.66,2.66,0,1,0,2.66,2.66A2.66,2.66,0,0,0,238.529,102.081Zm0,8.276a2.66,2.66,0,1,0,2.66,2.66A2.66,2.66,0,0,0,238.529,110.358Zm0,8.276a2.66,2.66,0,1,0,2.66,2.66A2.66,2.66,0,0,0,238.529,118.634Zm0,16.552a2.66,2.66,0,1,0,2.66,2.66A2.66,2.66,0,0,0,238.529,135.186Zm0,8.276a2.66,2.66,0,1,0,2.66,2.66A2.66,2.66,0,0,0,238.529,143.462Zm0,8.276a2.66,2.66,0,1,0,2.66,2.66A2.66,2.66,0,0,0,238.529,151.739Zm0,8.276a2.66,2.66,0,1,0,2.66,2.66A2.66,2.66,0,0,0,238.529,160.015Zm0,8.276a2.66,2.66,0,1,0,2.66,2.66A2.66,2.66,0,0,0,238.529,168.291Zm0,8.276a2.66,2.66,0,1,0,2.66,2.66A2.66,2.66,0,0,0,238.529,176.567Zm0,8.276a2.66,2.66,0,1,0,2.66,2.66A2.66,2.66,0,0,0,238.529,184.844Zm0,8.276a2.66,2.66,0,1,0,2.66,2.66A2.66,2.66,0,0,0,238.529,193.12Zm0,8.276a2.66,2.66,0,1,0,2.66,2.66A2.66,2.66,0,0,0,238.529,201.4Zm0,8.276a2.66,2.66,0,1,0,2.66,2.66A2.66,2.66,0,0,0,238.529,209.672Zm0,8.276a2.66,2.66,0,1,0,2.66,2.66A2.66,2.66,0,0,0,238.529,217.948Zm0,8.276a2.66,2.66,0,1,0,2.66,2.66A2.66,2.66,0,0,0,238.529,226.225Zm0,8.276a2.66,2.66,0,1,0,2.66,2.66A2.66,2.66,0,0,0,238.529,234.5Zm0,8.276a2.66,2.66,0,1,0,2.66,2.66A2.66,2.66,0,0,0,238.529,242.777ZM230.252,85.529a2.66,2.66,0,1,0,2.66,2.66A2.66,2.66,0,0,0,230.252,85.529Zm0,8.276a2.66,2.66,0,1,0,2.66,2.66A2.66,2.66,0,0,0,230.252,93.805Zm0,8.276a2.66,2.66,0,1,0,2.66,2.66A2.66,2.66,0,0,0,230.252,102.081Zm0,8.276a2.66,2.66,0,1,0,2.66,2.66A2.66,2.66,0,0,0,230.252,110.358Zm0,8.276a2.66,2.66,0,1,0,2.66,2.66A2.66,2.66,0,0,0,230.252,118.634Zm0,8.276a2.66,2.66,0,1,0,2.66,2.66A2.66,2.66,0,0,0,230.252,126.91Zm0,8.276a2.66,2.66,0,1,0,2.66,2.66A2.66,2.66,0,0,0,230.252,135.186Zm0,8.276a2.66,2.66,0,1,0,2.66,2.66A2.66,2.66,0,0,0,230.252,143.462Zm0,8.276a2.66,2.66,0,1,0,2.66,2.66A2.66,2.66,0,0,0,230.252,151.739Zm0,8.276a2.66,2.66,0,1,0,2.66,2.66A2.66,2.66,0,0,0,230.252,160.015Zm0,8.276a2.66,2.66,0,1,0,2.66,2.66A2.66,2.66,0,0,0,230.252,168.291Zm0,8.276a2.66,2.66,0,1,0,2.66,2.66A2.66,2.66,0,0,0,230.252,176.567Zm0,8.276a2.66,2.66,0,1,0,2.66,2.66A2.66,2.66,0,0,0,230.252,184.844Zm0,8.276a2.66,2.66,0,1,0,2.66,2.66A2.66,2.66,0,0,0,230.252,193.12Zm0,8.276a2.66,2.66,0,1,0,2.66,2.66A2.66,2.66,0,0,0,230.252,201.4Zm0,8.276a2.66,2.66,0,1,0,2.66,2.66A2.66,2.66,0,0,0,230.252,209.672Zm0,8.276a2.66,2.66,0,1,0,2.66,2.66A2.66,2.66,0,0,0,230.252,217.948Zm0,8.276a2.66,2.66,0,1,0,2.66,2.66A2.66,2.66,0,0,0,230.252,226.225Zm0,8.276a2.66,2.66,0,1,0,2.66,2.66A2.66,2.66,0,0,0,230.252,234.5Zm-8.276-140.7a2.66,2.66,0,1,0,2.66,2.66A2.66,2.66,0,0,0,221.976,93.805Zm0,8.276a2.66,2.66,0,1,0,2.66,2.66A2.66,2.66,0,0,0,221.976,102.081Zm0,8.276a2.66,2.66,0,1,0,2.66,2.66A2.66,2.66,0,0,0,221.976,110.358Zm0,8.276a2.66,2.66,0,1,0,2.66,2.66A2.66,2.66,0,0,0,221.976,118.634Zm0,8.276a2.66,2.66,0,1,0,2.66,2.66A2.66,2.66,0,0,0,221.976,126.91Zm0,8.276a2.66,2.66,0,1,0,2.66,2.66A2.66,2.66,0,0,0,221.976,135.186Zm0,8.276a2.66,2.66,0,1,0,2.66,2.66A2.66,2.66,0,0,0,221.976,143.462Zm0,8.276a2.66,2.66,0,1,0,2.66,2.66A2.66,2.66,0,0,0,221.976,151.739Zm0,8.276a2.66,2.66,0,1,0,2.66,2.66A2.66,2.66,0,0,0,221.976,160.015Zm0,8.276a2.66,2.66,0,1,0,2.66,2.66A2.66,2.66,0,0,0,221.976,168.291Zm0,8.276a2.66,2.66,0,1,0,2.66,2.66A2.66,2.66,0,0,0,221.976,176.567Zm0,8.276a2.66,2.66,0,1,0,2.66,2.66A2.66,2.66,0,0,0,221.976,184.844Zm0,8.276a2.66,2.66,0,1,0,2.66,2.66A2.66,2.66,0,0,0,221.976,193.12Zm0,8.276a2.66,2.66,0,1,0,2.66,2.66A2.66,2.66,0,0,0,221.976,201.4Zm0,8.276a2.66,2.66,0,1,0,2.66,2.66A2.66,2.66,0,0,0,221.976,209.672Zm0,8.276a2.66,2.66,0,1,0,2.66,2.66A2.66,2.66,0,0,0,221.976,217.948Zm0,8.276a2.66,2.66,0,1,0,2.66,2.66A2.66,2.66,0,0,0,221.976,226.225Zm0,8.276a2.66,2.66,0,1,0,2.66,2.66A2.66,2.66,0,0,0,221.976,234.5ZM213.7,93.805a2.66,2.66,0,1,0,2.66,2.66A2.66,2.66,0,0,0,213.7,93.805Zm0,8.276a2.66,2.66,0,1,0,2.66,2.66A2.66,2.66,0,0,0,213.7,102.081Zm0,8.276a2.66,2.66,0,1,0,2.66,2.66A2.66,2.66,0,0,0,213.7,110.358Zm0,8.276a2.66,2.66,0,1,0,2.66,2.66A2.66,2.66,0,0,0,213.7,118.634Zm0,8.276a2.66,2.66,0,1,0,2.66,2.66A2.66,2.66,0,0,0,213.7,126.91Zm0,8.276a2.66,2.66,0,1,0,2.66,2.66A2.66,2.66,0,0,0,213.7,135.186Zm0,8.276a2.66,2.66,0,1,0,2.66,2.66A2.66,2.66,0,0,0,213.7,143.462Zm0,8.276a2.66,2.66,0,1,0,2.66,2.66A2.66,2.66,0,0,0,213.7,151.739Zm0,8.276a2.66,2.66,0,1,0,2.66,2.66A2.66,2.66,0,0,0,213.7,160.015Zm0,8.276a2.66,2.66,0,1,0,2.66,2.66A2.66,2.66,0,0,0,213.7,168.291Zm0,8.276a2.66,2.66,0,1,0,2.66,2.66A2.66,2.66,0,0,0,213.7,176.567Zm0,8.276a2.66,2.66,0,1,0,2.66,2.66A2.66,2.66,0,0,0,213.7,184.844Zm0,8.276a2.66,2.66,0,1,0,2.66,2.66A2.66,2.66,0,0,0,213.7,193.12Zm0,8.276a2.66,2.66,0,1,0,2.66,2.66A2.66,2.66,0,0,0,213.7,201.4Zm0,8.276a2.66,2.66,0,1,0,2.66,2.66A2.66,2.66,0,0,0,213.7,209.672Zm0,8.276a2.66,2.66,0,1,0,2.66,2.66A2.66,2.66,0,0,0,213.7,217.948Zm0,8.276a2.66,2.66,0,1,0,2.66,2.66A2.66,2.66,0,0,0,213.7,226.225Zm0,8.276a2.66,2.66,0,1,0,2.66,2.66A2.66,2.66,0,0,0,213.7,234.5Zm-8.276-140.7a2.66,2.66,0,1,0,2.66,2.66A2.66,2.66,0,0,0,205.424,93.805Zm0,8.276a2.66,2.66,0,1,0,2.66,2.66A2.66,2.66,0,0,0,205.424,102.081Zm0,8.276a2.66,2.66,0,1,0,2.66,2.66A2.66,2.66,0,0,0,205.424,110.358Zm0,8.276a2.66,2.66,0,1,0,2.66,2.66A2.66,2.66,0,0,0,205.424,118.634Zm0,8.276a2.66,2.66,0,1,0,2.66,2.66A2.66,2.66,0,0,0,205.424,126.91Zm0,8.276a2.66,2.66,0,1,0,2.66,2.66A2.66,2.66,0,0,0,205.424,135.186Zm0,8.276a2.66,2.66,0,1,0,2.66,2.66A2.66,2.66,0,0,0,205.424,143.462Zm0,8.276a2.66,2.66,0,1,0,2.66,2.66A2.66,2.66,0,0,0,205.424,151.739Zm0,8.276a2.66,2.66,0,1,0,2.66,2.66A2.66,2.66,0,0,0,205.424,160.015Zm0,8.276a2.66,2.66,0,1,0,2.66,2.66A2.66,2.66,0,0,0,205.424,168.291Zm0,8.276a2.66,2.66,0,1,0,2.66,2.66A2.66,2.66,0,0,0,205.424,176.567Zm0,8.276a2.66,2.66,0,1,0,2.66,2.66A2.66,2.66,0,0,0,205.424,184.844Zm0,8.276a2.66,2.66,0,1,0,2.66,2.66A2.66,2.66,0,0,0,205.424,193.12Zm0,8.276a2.66,2.66,0,1,0,2.66,2.66A2.66,2.66,0,0,0,205.424,201.4Zm0,8.276a2.66,2.66,0,1,0,2.66,2.66A2.66,2.66,0,0,0,205.424,209.672Zm0,8.276a2.66,2.66,0,1,0,2.66,2.66A2.66,2.66,0,0,0,205.424,217.948Zm0,8.276a2.66,2.66,0,1,0,2.66,2.66A2.66,2.66,0,0,0,205.424,226.225Zm0,8.276a2.66,2.66,0,1,0,2.66,2.66A2.66,2.66,0,0,0,205.424,234.5Zm-8.276-140.7a2.66,2.66,0,1,0,2.66,2.66A2.66,2.66,0,0,0,197.147,93.805Zm0,8.276a2.66,2.66,0,1,0,2.66,2.66A2.66,2.66,0,0,0,197.147,102.081Zm0,8.276a2.66,2.66,0,1,0,2.66,2.66A2.66,2.66,0,0,0,197.147,110.358Zm0,8.276a2.66,2.66,0,1,0,2.66,2.66A2.66,2.66,0,0,0,197.147,118.634Zm0,8.276a2.66,2.66,0,1,0,2.66,2.66A2.66,2.66,0,0,0,197.147,126.91Zm0,8.276a2.66,2.66,0,1,0,2.66,2.66A2.66,2.66,0,0,0,197.147,135.186Zm0,8.276a2.66,2.66,0,1,0,2.66,2.66A2.66,2.66,0,0,0,197.147,143.462Zm0,8.276a2.66,2.66,0,1,0,2.66,2.66A2.66,2.66,0,0,0,197.147,151.739Zm0,16.552a2.66,2.66,0,1,0,2.66,2.66A2.66,2.66,0,0,0,197.147,168.291Zm0,8.276a2.66,2.66,0,1,0,2.66,2.66A2.66,2.66,0,0,0,197.147,176.567Zm0,8.276a2.66,2.66,0,1,0,2.66,2.66A2.66,2.66,0,0,0,197.147,184.844Zm0,8.276a2.66,2.66,0,1,0,2.66,2.66A2.66,2.66,0,0,0,197.147,193.12Zm0,16.552a2.66,2.66,0,1,0,2.66,2.66A2.66,2.66,0,0,0,197.147,209.672Zm0,8.276a2.66,2.66,0,1,0,2.66,2.66A2.66,2.66,0,0,0,197.147,217.948Zm0,8.276a2.66,2.66,0,1,0,2.66,2.66A2.66,2.66,0,0,0,197.147,226.225Zm0,8.276a2.66,2.66,0,1,0,2.66,2.66A2.66,2.66,0,0,0,197.147,234.5Zm-8.276-132.419a2.66,2.66,0,1,0,2.66,2.66A2.66,2.66,0,0,0,188.871,102.081Zm0,8.276a2.66,2.66,0,1,0,2.66,2.66A2.66,2.66,0,0,0,188.871,110.358Zm0,8.276a2.66,2.66,0,1,0,2.66,2.66A2.66,2.66,0,0,0,188.871,118.634Zm0,8.276a2.66,2.66,0,1,0,2.66,2.66A2.66,2.66,0,0,0,188.871,126.91Zm0,8.276a2.66,2.66,0,1,0,2.66,2.66A2.66,2.66,0,0,0,188.871,135.186Zm0,8.276a2.66,2.66,0,1,0,2.66,2.66A2.66,2.66,0,0,0,188.871,143.462Zm0,8.276a2.66,2.66,0,1,0,2.66,2.66A2.66,2.66,0,0,0,188.871,151.739Zm0,8.276a2.66,2.66,0,1,0,2.66,2.66A2.66,2.66,0,0,0,188.871,160.015Zm0,8.276a2.66,2.66,0,1,0,2.66,2.66A2.66,2.66,0,0,0,188.871,168.291Zm0,8.276a2.66,2.66,0,1,0,2.66,2.66A2.66,2.66,0,0,0,188.871,176.567Zm0,8.276a2.66,2.66,0,1,0,2.66,2.66A2.66,2.66,0,0,0,188.871,184.844Zm0,8.276a2.66,2.66,0,1,0,2.66,2.66A2.66,2.66,0,0,0,188.871,193.12Zm0,16.552a2.66,2.66,0,1,0,2.66,2.66A2.66,2.66,0,0,0,188.871,209.672Zm0,8.276a2.66,2.66,0,1,0,2.66,2.66A2.66,2.66,0,0,0,188.871,217.948Zm0,8.276a2.66,2.66,0,1,0,2.66,2.66A2.66,2.66,0,0,0,188.871,226.225Zm0,8.276a2.66,2.66,0,1,0,2.66,2.66A2.66,2.66,0,0,0,188.871,234.5Zm-8.276-132.419a2.66,2.66,0,1,0,2.66,2.66A2.66,2.66,0,0,0,180.595,102.081Zm0,8.276a2.66,2.66,0,1,0,2.66,2.66A2.66,2.66,0,0,0,180.595,110.358Zm0,8.276a2.66,2.66,0,1,0,2.66,2.66A2.66,2.66,0,0,0,180.595,118.634Zm0,8.276a2.66,2.66,0,1,0,2.66,2.66A2.66,2.66,0,0,0,180.595,126.91Zm0,8.276a2.66,2.66,0,1,0,2.66,2.66A2.66,2.66,0,0,0,180.595,135.186Zm0,8.276a2.66,2.66,0,1,0,2.66,2.66A2.66,2.66,0,0,0,180.595,143.462Zm0,8.276a2.66,2.66,0,1,0,2.66,2.66A2.66,2.66,0,0,0,180.595,151.739Zm0,8.276a2.66,2.66,0,1,0,2.66,2.66A2.66,2.66,0,0,0,180.595,160.015Zm0,8.276a2.66,2.66,0,1,0,2.66,2.66A2.66,2.66,0,0,0,180.595,168.291Zm0,8.276a2.66,2.66,0,1,0,2.66,2.66A2.66,2.66,0,0,0,180.595,176.567Zm0,8.276a2.66,2.66,0,1,0,2.66,2.66A2.66,2.66,0,0,0,180.595,184.844Zm0,8.276a2.66,2.66,0,1,0,2.66,2.66A2.66,2.66,0,0,0,180.595,193.12Zm0,8.276a2.66,2.66,0,1,0,2.66,2.66A2.66,2.66,0,0,0,180.595,201.4Zm0,8.276a2.66,2.66,0,1,0,2.66,2.66A2.66,2.66,0,0,0,180.595,209.672Zm0,8.276a2.66,2.66,0,1,0,2.66,2.66A2.66,2.66,0,0,0,180.595,217.948Zm0,16.552a2.66,2.66,0,1,0,2.66,2.66A2.66,2.66,0,0,0,180.595,234.5Zm-8.276-124.143a2.66,2.66,0,1,0,2.66,2.66A2.66,2.66,0,0,0,172.319,110.358Zm0,8.276a2.66,2.66,0,1,0,2.66,2.66A2.66,2.66,0,0,0,172.319,118.634Zm0,8.276a2.66,2.66,0,1,0,2.66,2.66A2.66,2.66,0,0,0,172.319,126.91Zm0,8.276a2.66,2.66,0,1,0,2.66,2.66A2.66,2.66,0,0,0,172.319,135.186Zm0,8.276a2.66,2.66,0,1,0,2.66,2.66A2.66,2.66,0,0,0,172.319,143.462Zm0,8.276a2.66,2.66,0,1,0,2.66,2.66A2.66,2.66,0,0,0,172.319,151.739Zm0,8.276a2.66,2.66,0,1,0,2.66,2.66A2.66,2.66,0,0,0,172.319,160.015Zm0,8.276a2.66,2.66,0,1,0,2.66,2.66A2.66,2.66,0,0,0,172.319,168.291Zm0,8.276a2.66,2.66,0,1,0,2.66,2.66A2.66,2.66,0,0,0,172.319,176.567Zm0,8.276a2.66,2.66,0,1,0,2.66,2.66A2.66,2.66,0,0,0,172.319,184.844Zm0,8.276a2.66,2.66,0,1,0,2.66,2.66A2.66,2.66,0,0,0,172.319,193.12Zm0,8.276a2.66,2.66,0,1,0,2.66,2.66A2.66,2.66,0,0,0,172.319,201.4Zm0,8.276a2.66,2.66,0,1,0,2.66,2.66A2.66,2.66,0,0,0,172.319,209.672Zm0,8.276a2.66,2.66,0,1,0,2.66,2.66A2.66,2.66,0,0,0,172.319,217.948Zm0,8.276a2.66,2.66,0,1,0,2.66,2.66A2.66,2.66,0,0,0,172.319,226.225Zm0,8.276a2.66,2.66,0,1,0,2.66,2.66A2.66,2.66,0,0,0,172.319,234.5Zm0,8.276a2.66,2.66,0,1,0,2.66,2.66A2.66,2.66,0,0,0,172.319,242.777Zm-8.276-124.143a2.66,2.66,0,1,0,2.66,2.66A2.66,2.66,0,0,0,164.043,118.634Zm0,8.276a2.66,2.66,0,1,0,2.66,2.66A2.66,2.66,0,0,0,164.043,126.91Zm0,8.276a2.66,2.66,0,1,0,2.66,2.66A2.66,2.66,0,0,0,164.043,135.186Zm0,8.276a2.66,2.66,0,1,0,2.66,2.66A2.66,2.66,0,0,0,164.043,143.462Zm0,8.276a2.66,2.66,0,1,0,2.66,2.66A2.66,2.66,0,0,0,164.043,151.739Zm0,8.276a2.66,2.66,0,1,0,2.66,2.66A2.66,2.66,0,0,0,164.043,160.015Zm0,8.276a2.66,2.66,0,1,0,2.66,2.66A2.66,2.66,0,0,0,164.043,168.291Zm0,8.276a2.66,2.66,0,1,0,2.66,2.66A2.66,2.66,0,0,0,164.043,176.567Zm0,8.276a2.66,2.66,0,1,0,2.66,2.66A2.66,2.66,0,0,0,164.043,184.844Zm0,8.276a2.66,2.66,0,1,0,2.66,2.66A2.66,2.66,0,0,0,164.043,193.12Zm0,8.276a2.66,2.66,0,1,0,2.66,2.66A2.66,2.66,0,0,0,164.043,201.4Zm0,8.276a2.66,2.66,0,1,0,2.66,2.66A2.66,2.66,0,0,0,164.043,209.672Zm0,8.276a2.66,2.66,0,1,0,2.66,2.66A2.66,2.66,0,0,0,164.043,217.948Zm0,8.276a2.66,2.66,0,1,0,2.66,2.66A2.66,2.66,0,0,0,164.043,226.225Zm0,8.276a2.66,2.66,0,1,0,2.66,2.66A2.66,2.66,0,0,0,164.043,234.5Zm0,8.276a2.66,2.66,0,1,0,2.66,2.66A2.66,2.66,0,0,0,164.043,242.777ZM155.766,126.91a2.66,2.66,0,1,0,2.66,2.66A2.66,2.66,0,0,0,155.766,126.91Zm0,8.276a2.66,2.66,0,1,0,2.66,2.66A2.66,2.66,0,0,0,155.766,135.186Zm0,8.276a2.66,2.66,0,1,0,2.66,2.66A2.66,2.66,0,0,0,155.766,143.462Zm0,8.276a2.66,2.66,0,1,0,2.66,2.66A2.66,2.66,0,0,0,155.766,151.739Zm0,8.276a2.66,2.66,0,1,0,2.66,2.66A2.66,2.66,0,0,0,155.766,160.015Zm0,8.276a2.66,2.66,0,1,0,2.66,2.66A2.66,2.66,0,0,0,155.766,168.291Zm0,8.276a2.66,2.66,0,1,0,2.66,2.66A2.66,2.66,0,0,0,155.766,176.567Zm0,8.276a2.66,2.66,0,1,0,2.66,2.66A2.66,2.66,0,0,0,155.766,184.844Zm0,8.276a2.66,2.66,0,1,0,2.66,2.66A2.66,2.66,0,0,0,155.766,193.12Zm0,8.276a2.66,2.66,0,1,0,2.66,2.66A2.66,2.66,0,0,0,155.766,201.4Zm0,8.276a2.66,2.66,0,1,0,2.66,2.66A2.66,2.66,0,0,0,155.766,209.672Zm0,8.276a2.66,2.66,0,1,0,2.66,2.66A2.66,2.66,0,0,0,155.766,217.948Zm0,8.276a2.66,2.66,0,1,0,2.66,2.66A2.66,2.66,0,0,0,155.766,226.225Zm0,8.276a2.66,2.66,0,1,0,2.66,2.66A2.66,2.66,0,0,0,155.766,234.5Zm0,8.276a2.66,2.66,0,1,0,2.66,2.66A2.66,2.66,0,0,0,155.766,242.777ZM147.49,135.186a2.66,2.66,0,1,0,2.66,2.66A2.66,2.66,0,0,0,147.49,135.186Zm0,8.276a2.66,2.66,0,1,0,2.66,2.66A2.66,2.66,0,0,0,147.49,143.462Zm0,8.276a2.66,2.66,0,1,0,2.66,2.66A2.66,2.66,0,0,0,147.49,151.739Zm0,8.276a2.66,2.66,0,1,0,2.66,2.66A2.66,2.66,0,0,0,147.49,160.015Zm0,8.276a2.66,2.66,0,1,0,2.66,2.66A2.66,2.66,0,0,0,147.49,168.291Zm0,8.276a2.66,2.66,0,1,0,2.66,2.66A2.66,2.66,0,0,0,147.49,176.567Zm0,8.276a2.66,2.66,0,1,0,2.66,2.66A2.66,2.66,0,0,0,147.49,184.844Zm0,8.276a2.66,2.66,0,1,0,2.66,2.66A2.66,2.66,0,0,0,147.49,193.12Zm0,8.276a2.66,2.66,0,1,0,2.66,2.66A2.66,2.66,0,0,0,147.49,201.4Zm0,8.276a2.66,2.66,0,1,0,2.66,2.66A2.66,2.66,0,0,0,147.49,209.672Zm0,8.276a2.66,2.66,0,1,0,2.66,2.66A2.66,2.66,0,0,0,147.49,217.948Zm0,8.276a2.66,2.66,0,1,0,2.66,2.66A2.66,2.66,0,0,0,147.49,226.225Zm0,8.276a2.66,2.66,0,1,0,2.66,2.66A2.66,2.66,0,0,0,147.49,234.5Zm0,8.276a2.66,2.66,0,1,0,2.66,2.66A2.66,2.66,0,0,0,147.49,242.777Zm-8.276-99.315a2.66,2.66,0,1,0,2.66,2.66A2.66,2.66,0,0,0,139.214,143.462Zm0,8.276a2.66,2.66,0,1,0,2.66,2.66A2.66,2.66,0,0,0,139.214,151.739Zm0,8.276a2.66,2.66,0,1,0,2.66,2.66A2.66,2.66,0,0,0,139.214,160.015Zm0,8.276a2.66,2.66,0,1,0,2.66,2.66A2.66,2.66,0,0,0,139.214,168.291Zm0,8.276a2.66,2.66,0,1,0,2.66,2.66A2.66,2.66,0,0,0,139.214,176.567Zm0,8.276a2.66,2.66,0,1,0,2.66,2.66A2.66,2.66,0,0,0,139.214,184.844Zm0,8.276a2.66,2.66,0,1,0,2.66,2.66A2.66,2.66,0,0,0,139.214,193.12Zm0,8.276a2.66,2.66,0,1,0,2.66,2.66A2.66,2.66,0,0,0,139.214,201.4Zm0,8.276a2.66,2.66,0,1,0,2.66,2.66A2.66,2.66,0,0,0,139.214,209.672Zm0,8.276a2.66,2.66,0,1,0,2.66,2.66A2.66,2.66,0,0,0,139.214,217.948Zm0,8.276a2.66,2.66,0,1,0,2.66,2.66A2.66,2.66,0,0,0,139.214,226.225Zm0,8.276a2.66,2.66,0,1,0,2.66,2.66A2.66,2.66,0,0,0,139.214,234.5Zm0,8.276a2.66,2.66,0,1,0,2.66,2.66A2.66,2.66,0,0,0,139.214,242.777Zm-8.276-82.762a2.66,2.66,0,1,0,2.66,2.66A2.66,2.66,0,0,0,130.938,160.015Zm0,8.276a2.66,2.66,0,1,0,2.66,2.66A2.66,2.66,0,0,0,130.938,168.291Zm0,8.276a2.66,2.66,0,1,0,2.66,2.66A2.66,2.66,0,0,0,130.938,176.567Zm0,8.276a2.66,2.66,0,1,0,2.66,2.66A2.66,2.66,0,0,0,130.938,184.844Zm0,8.276a2.66,2.66,0,1,0,2.66,2.66A2.66,2.66,0,0,0,130.938,193.12Zm0,8.276a2.66,2.66,0,1,0,2.66,2.66A2.66,2.66,0,0,0,130.938,201.4Zm0,8.276a2.66,2.66,0,1,0,2.66,2.66A2.66,2.66,0,0,0,130.938,209.672Zm0,8.276a2.66,2.66,0,1,0,2.66,2.66A2.66,2.66,0,0,0,130.938,217.948Zm-8.276-24.829a2.66,2.66,0,1,0,2.66,2.66A2.66,2.66,0,0,0,122.661,193.12ZM73,184.844a2.66,2.66,0,1,0,2.66,2.66A2.66,2.66,0,0,0,73,184.844Zm-8.276-4.138a1.478,1.478,0,1,1,1.478-1.478A1.478,1.478,0,0,1,64.728,180.705Zm16.552,8.276a1.478,1.478,0,1,1,1.478-1.478A1.478,1.478,0,0,1,81.28,188.982ZM73,197.258a1.478,1.478,0,1,1,1.478-1.478A1.478,1.478,0,0,1,73,197.258Zm422.087,33.7a2.069,2.069,0,1,1,2.069-2.069A2.071,2.071,0,0,1,495.091,230.954Zm-8.276,8.276a2.069,2.069,0,1,1,2.069-2.069A2.071,2.071,0,0,1,486.815,239.23Zm0,8.276a2.069,2.069,0,1,1,2.069-2.069A2.071,2.071,0,0,1,486.815,247.506Zm0,8.276a2.069,2.069,0,1,1,2.069-2.069A2.071,2.071,0,0,1,486.815,255.783Zm0,132.419a2.069,2.069,0,1,1,2.069-2.069A2.071,2.071,0,0,1,486.815,388.2Zm0,8.276a2.069,2.069,0,1,1,2.069-2.069A2.071,2.071,0,0,1,486.815,396.478ZM478.539,239.23a2.069,2.069,0,1,1,2.069-2.069A2.071,2.071,0,0,1,478.539,239.23Zm0,24.829a2.069,2.069,0,1,1,2.069-2.069A2.071,2.071,0,0,1,478.539,264.059Zm0,132.419a2.069,2.069,0,1,1,2.069-2.069A2.071,2.071,0,0,1,478.539,396.478Zm0,16.552a2.069,2.069,0,1,1,2.069-2.069A2.071,2.071,0,0,1,478.539,413.031Zm-8.276-173.8a2.069,2.069,0,1,1,2.069-2.069A2.071,2.071,0,0,1,470.263,239.23Zm0,33.1a2.069,2.069,0,1,1,2.069-2.069A2.071,2.071,0,0,1,470.263,272.335Zm0,132.419a2.069,2.069,0,1,1,2.069-2.069A2.071,2.071,0,0,1,470.263,404.755Zm0,8.276a2.069,2.069,0,1,1,2.069-2.069A2.071,2.071,0,0,1,470.263,413.031Zm0,8.276a2.069,2.069,0,1,1,2.069-2.069A2.071,2.071,0,0,1,470.263,421.307Zm0,8.276a2.069,2.069,0,1,1,2.069-2.069A2.071,2.071,0,0,1,470.263,429.583ZM461.986,239.23a2.069,2.069,0,1,1,2.069-2.069A2.071,2.071,0,0,1,461.986,239.23Zm0,41.381a2.069,2.069,0,1,1,2.069-2.069A2.071,2.071,0,0,1,461.986,280.611Zm0,157.248a2.069,2.069,0,1,1,2.069-2.069A2.071,2.071,0,0,1,461.986,437.859ZM453.71,230.954a2.069,2.069,0,1,1,2.069-2.069A2.071,2.071,0,0,1,453.71,230.954Zm0,57.934a2.069,2.069,0,1,1,2.069-2.069A2.071,2.071,0,0,1,453.71,288.887Zm-8.276-66.21a2.069,2.069,0,1,1,2.069-2.069A2.071,2.071,0,0,1,445.434,222.678Zm0,74.486a2.069,2.069,0,1,1,2.069-2.069A2.071,2.071,0,0,1,445.434,297.164ZM437.158,214.4a2.069,2.069,0,1,1,2.069-2.069A2.071,2.071,0,0,1,437.158,214.4Zm0,91.038a2.069,2.069,0,1,1,2.069-2.069A2.071,2.071,0,0,1,437.158,305.44Zm0,66.21a2.069,2.069,0,1,1,2.069-2.069A2.071,2.071,0,0,1,437.158,371.65Zm-8.276-165.524a2.069,2.069,0,1,1,2.069-2.069A2.071,2.071,0,0,1,428.882,206.125Zm0,107.591a2.069,2.069,0,1,1,2.069-2.069A2.071,2.071,0,0,1,428.882,313.716Zm0,8.276a2.069,2.069,0,1,1,2.069-2.069A2.071,2.071,0,0,1,428.882,321.992Zm0,8.276a2.069,2.069,0,1,1,2.069-2.069A2.071,2.071,0,0,1,428.882,330.269Zm0,16.552a2.069,2.069,0,1,1,2.069-2.069A2.071,2.071,0,0,1,428.882,346.821Zm0,8.276a2.069,2.069,0,1,1,2.069-2.069A2.071,2.071,0,0,1,428.882,355.1Zm0,8.276a2.069,2.069,0,1,1,2.069-2.069A2.071,2.071,0,0,1,428.882,363.373Zm0,8.276a2.069,2.069,0,1,1,2.069-2.069A2.071,2.071,0,0,1,428.882,371.65Zm0,8.276a2.069,2.069,0,1,1,2.069-2.069A2.071,2.071,0,0,1,428.882,379.926Zm0,8.276a2.069,2.069,0,1,1,2.069-2.069A2.071,2.071,0,0,1,428.882,388.2Zm-8.276-198.629a2.069,2.069,0,1,1,2.069-2.069A2.071,2.071,0,0,1,420.605,189.573Zm0,148.972a2.069,2.069,0,1,1,2.069-2.069A2.071,2.071,0,0,1,420.605,338.545Zm0,49.657a2.069,2.069,0,1,1,2.069-2.069A2.071,2.071,0,0,1,420.605,388.2ZM412.329,181.3a2.069,2.069,0,1,1,2.069-2.069A2.071,2.071,0,0,1,412.329,181.3Zm0,215.182a2.069,2.069,0,1,1,2.069-2.069A2.071,2.071,0,0,1,412.329,396.478Zm-8.276-231.734a2.069,2.069,0,1,1,2.069-2.069A2.071,2.071,0,0,1,404.053,164.744Zm0,8.276a2.069,2.069,0,1,1,2.069-2.069A2.071,2.071,0,0,1,404.053,173.02Zm0,223.458a2.069,2.069,0,1,1,2.069-2.069A2.071,2.071,0,0,1,404.053,396.478Zm-8.276-248.287a2.069,2.069,0,1,1,2.069-2.069A2.071,2.071,0,0,1,395.777,148.192Zm0,8.276a2.069,2.069,0,1,1,2.069-2.069A2.071,2.071,0,0,1,395.777,156.468Zm0,248.287a2.069,2.069,0,1,1,2.069-2.069A2.071,2.071,0,0,1,395.777,404.755Zm0,8.276a2.069,2.069,0,1,1,2.069-2.069A2.071,2.071,0,0,1,395.777,413.031Zm0,8.276a2.069,2.069,0,1,1,2.069-2.069A2.071,2.071,0,0,1,395.777,421.307Zm0,8.276a2.069,2.069,0,1,1,2.069-2.069A2.071,2.071,0,0,1,395.777,429.583Zm0,8.276a2.069,2.069,0,1,1,2.069-2.069A2.071,2.071,0,0,1,395.777,437.859ZM387.5,139.916a2.069,2.069,0,1,1,2.069-2.069A2.071,2.071,0,0,1,387.5,139.916Zm0,306.22a2.069,2.069,0,1,1,2.069-2.069A2.071,2.071,0,0,1,387.5,446.136Zm-8.276-331.049a2.069,2.069,0,1,1,2.069-2.069A2.071,2.071,0,0,1,379.224,115.087Zm0,16.552a2.069,2.069,0,1,1,2.069-2.069A2.071,2.071,0,0,1,379.224,131.639Zm0,322.772a2.069,2.069,0,1,1,2.069-2.069A2.071,2.071,0,0,1,379.224,454.412Zm0,8.276a2.069,2.069,0,1,1,2.069-2.069A2.071,2.071,0,0,1,379.224,462.688Zm-8.276-339.325a2.069,2.069,0,1,1,2.069-2.069A2.071,2.071,0,0,1,370.948,123.363Zm0,347.6a2.069,2.069,0,1,1,2.069-2.069A2.071,2.071,0,0,1,370.948,470.964Zm-8.276-347.6a2.069,2.069,0,1,1,2.069-2.069A2.071,2.071,0,0,1,362.672,123.363Zm0,347.6a2.069,2.069,0,1,1,2.069-2.069A2.071,2.071,0,0,1,362.672,470.964Zm-8.276-347.6a2.069,2.069,0,1,1,2.069-2.069A2.071,2.071,0,0,1,354.4,123.363Zm0,355.877a2.069,2.069,0,1,1,2.069-2.069A2.071,2.071,0,0,1,354.4,479.24Zm-8.276-355.877a2.069,2.069,0,1,1,2.069-2.069A2.071,2.071,0,0,1,346.119,123.363Zm0,364.154a2.069,2.069,0,1,1,2.069-2.069A2.071,2.071,0,0,1,346.119,487.517Zm-8.276-372.43a2.069,2.069,0,1,1,2.069-2.069A2.071,2.071,0,0,1,337.843,115.087Zm0,8.276a2.069,2.069,0,1,1,2.069-2.069A2.071,2.071,0,0,1,337.843,123.363Zm0,364.154a2.069,2.069,0,1,1,2.069-2.069A2.071,2.071,0,0,1,337.843,487.517Zm-8.276-372.43a2.069,2.069,0,1,1,2.069-2.069A2.071,2.071,0,0,1,329.567,115.087Zm0,8.276a2.069,2.069,0,1,1,2.069-2.069A2.071,2.071,0,0,1,329.567,123.363Zm0,364.154a2.069,2.069,0,1,1,2.069-2.069A2.071,2.071,0,0,1,329.567,487.517Zm-8.276-372.43a2.069,2.069,0,1,1,2.069-2.069A2.071,2.071,0,0,1,321.291,115.087Zm0,8.276a2.069,2.069,0,1,1,2.069-2.069A2.071,2.071,0,0,1,321.291,123.363Zm0,355.877a2.069,2.069,0,1,1,2.069-2.069A2.071,2.071,0,0,1,321.291,479.24Zm0,8.276a2.069,2.069,0,1,1,2.069-2.069A2.071,2.071,0,0,1,321.291,487.517Zm-8.276-355.877a2.069,2.069,0,1,1,2.069-2.069A2.071,2.071,0,0,1,313.014,131.639Zm0,339.325a2.069,2.069,0,1,1,2.069-2.069A2.071,2.071,0,0,1,313.014,470.964Zm-8.276-347.6a2.069,2.069,0,1,1,2.069-2.069A2.071,2.071,0,0,1,304.738,123.363Zm0,322.773a2.069,2.069,0,1,1,2.069-2.069A2.071,2.071,0,0,1,304.738,446.136Zm0,8.276a2.069,2.069,0,1,1,2.069-2.069A2.071,2.071,0,0,1,304.738,454.412Zm0,8.276a2.069,2.069,0,1,1,2.069-2.069A2.071,2.071,0,0,1,304.738,462.688Zm-8.276-339.325a2.069,2.069,0,1,1,2.069-2.069A2.071,2.071,0,0,1,296.462,123.363Zm0,231.734a2.069,2.069,0,1,1,2.069-2.069A2.071,2.071,0,0,1,296.462,355.1Zm0,8.276a2.069,2.069,0,1,1,2.069-2.069A2.071,2.071,0,0,1,296.462,363.373Zm0,8.276a2.069,2.069,0,1,1,2.069-2.069A2.071,2.071,0,0,1,296.462,371.65Zm0,49.657a2.069,2.069,0,1,1,2.069-2.069A2.071,2.071,0,0,1,296.462,421.307Zm0,8.276a2.069,2.069,0,1,1,2.069-2.069A2.071,2.071,0,0,1,296.462,429.583Zm0,8.276a2.069,2.069,0,1,1,2.069-2.069A2.071,2.071,0,0,1,296.462,437.859Zm-8.276-322.773a2.069,2.069,0,1,1,2.069-2.069A2.071,2.071,0,0,1,288.186,115.087Zm0,223.458a2.069,2.069,0,1,1,2.069-2.069A2.071,2.071,0,0,1,288.186,338.545Zm0,8.276a2.069,2.069,0,1,1,2.069-2.069A2.071,2.071,0,0,1,288.186,346.821Zm0,33.1a2.069,2.069,0,1,1,2.069-2.069A2.071,2.071,0,0,1,288.186,379.926Zm0,8.276a2.069,2.069,0,1,1,2.069-2.069A2.071,2.071,0,0,1,288.186,388.2Zm0,8.276a2.069,2.069,0,1,1,2.069-2.069A2.071,2.071,0,0,1,288.186,396.478Zm0,8.276a2.069,2.069,0,1,1,2.069-2.069A2.071,2.071,0,0,1,288.186,404.755Zm0,8.276a2.069,2.069,0,1,1,2.069-2.069A2.071,2.071,0,0,1,288.186,413.031ZM279.91,115.087a2.069,2.069,0,1,1,2.069-2.069A2.071,2.071,0,0,1,279.91,115.087Zm0,206.905a2.069,2.069,0,1,1,2.069-2.069A2.071,2.071,0,0,1,279.91,321.992Zm0,8.276a2.069,2.069,0,1,1,2.069-2.069A2.071,2.071,0,0,1,279.91,330.269Zm-8.276-215.182a2.069,2.069,0,1,1,2.069-2.069A2.071,2.071,0,0,1,271.633,115.087Zm0,165.524a2.069,2.069,0,1,1,2.069-2.069A2.071,2.071,0,0,1,271.633,280.611Zm0,8.276a2.069,2.069,0,1,1,2.069-2.069A2.071,2.071,0,0,1,271.633,288.887Zm0,8.276a2.069,2.069,0,1,1,2.069-2.069A2.071,2.071,0,0,1,271.633,297.164Zm0,8.276a2.069,2.069,0,1,1,2.069-2.069A2.071,2.071,0,0,1,271.633,305.44Zm0,8.276a2.069,2.069,0,1,1,2.069-2.069A2.071,2.071,0,0,1,271.633,313.716Zm-8.276-206.905a2.069,2.069,0,1,1,2.069-2.069A2.071,2.071,0,0,1,263.357,106.811Zm0,165.524a2.069,2.069,0,1,1,2.069-2.069A2.071,2.071,0,0,1,263.357,272.335ZM255.081,81.982a2.069,2.069,0,1,1,2.069-2.069A2.071,2.071,0,0,1,255.081,81.982Zm0,8.276a2.069,2.069,0,1,1,2.069-2.069A2.071,2.071,0,0,1,255.081,90.258Zm0,8.276a2.069,2.069,0,1,1,2.069-2.069A2.071,2.071,0,0,1,255.081,98.534Zm0,165.524a2.069,2.069,0,1,1,2.069-2.069A2.071,2.071,0,0,1,255.081,264.059ZM246.8,90.258a2.069,2.069,0,1,1,2.069-2.069A2.071,2.071,0,0,1,246.8,90.258Zm0,165.524a2.069,2.069,0,1,1,2.069-2.069A2.071,2.071,0,0,1,246.8,255.783Zm-8.276-173.8a2.069,2.069,0,1,1,2.069-2.069A2.071,2.071,0,0,1,238.529,81.982Zm0,173.8a2.069,2.069,0,1,1,2.069-2.069A2.071,2.071,0,0,1,238.529,255.783Zm-8.276-173.8a2.069,2.069,0,1,1,2.069-2.069A2.071,2.071,0,0,1,230.252,81.982Zm0,165.524a2.069,2.069,0,1,1,2.069-2.069A2.071,2.071,0,0,1,230.252,247.506ZM221.976,90.258a2.069,2.069,0,1,1,2.069-2.069A2.071,2.071,0,0,1,221.976,90.258Zm0,157.248a2.069,2.069,0,1,1,2.069-2.069A2.071,2.071,0,0,1,221.976,247.506ZM213.7,90.258a2.069,2.069,0,1,1,2.069-2.069A2.071,2.071,0,0,1,213.7,90.258Zm0,157.248a2.069,2.069,0,1,1,2.069-2.069A2.071,2.071,0,0,1,213.7,247.506ZM205.424,90.258a2.069,2.069,0,1,1,2.069-2.069A2.071,2.071,0,0,1,205.424,90.258Zm0,157.248a2.069,2.069,0,1,1,2.069-2.069A2.071,2.071,0,0,1,205.424,247.506ZM197.147,90.258a2.069,2.069,0,1,1,2.069-2.069A2.071,2.071,0,0,1,197.147,90.258Zm0,157.248a2.069,2.069,0,1,1,2.069-2.069A2.071,2.071,0,0,1,197.147,247.506ZM188.871,98.534a2.069,2.069,0,1,1,2.069-2.069A2.071,2.071,0,0,1,188.871,98.534Zm0,148.972a2.069,2.069,0,1,1,2.069-2.069A2.071,2.071,0,0,1,188.871,247.506ZM180.595,98.534a2.069,2.069,0,1,1,2.069-2.069A2.071,2.071,0,0,1,180.595,98.534Zm0,148.972a2.069,2.069,0,1,1,2.069-2.069A2.071,2.071,0,0,1,180.595,247.506ZM172.319,98.534a2.069,2.069,0,1,1,2.069-2.069A2.071,2.071,0,0,1,172.319,98.534Zm0,8.276a2.069,2.069,0,1,1,2.069-2.069A2.071,2.071,0,0,1,172.319,106.811Zm0,148.972a2.069,2.069,0,1,1,2.069-2.069A2.071,2.071,0,0,1,172.319,255.783Zm-8.276-140.7a2.069,2.069,0,1,1,2.069-2.069A2.071,2.071,0,0,1,164.043,115.087Zm0,140.7a2.069,2.069,0,1,1,2.069-2.069A2.071,2.071,0,0,1,164.043,255.783Zm-8.276-132.42a2.069,2.069,0,1,1,2.069-2.069A2.071,2.071,0,0,1,155.766,123.363Zm0,132.42a2.069,2.069,0,1,1,2.069-2.069A2.071,2.071,0,0,1,155.766,255.783ZM147.49,131.639a2.069,2.069,0,1,1,2.069-2.069A2.071,2.071,0,0,1,147.49,131.639Zm0,124.143a2.069,2.069,0,1,1,2.069-2.069A2.071,2.071,0,0,1,147.49,255.783Zm-8.276-115.867a2.069,2.069,0,1,1,2.069-2.069A2.071,2.071,0,0,1,139.214,139.916Zm0,115.867a2.069,2.069,0,1,1,2.069-2.069A2.071,2.071,0,0,1,139.214,255.783Zm-8.276-107.591a2.069,2.069,0,1,1,2.069-2.069A2.071,2.071,0,0,1,130.938,148.192Zm0,8.276a2.069,2.069,0,1,1,2.069-2.069A2.071,2.071,0,0,1,130.938,156.468Zm0,74.486a2.069,2.069,0,1,1,2.069-2.069A2.071,2.071,0,0,1,130.938,230.954Zm0,8.276a2.069,2.069,0,1,1,2.069-2.069A2.071,2.071,0,0,1,130.938,239.23Zm-8.276-74.486a2.069,2.069,0,1,1,2.069-2.069A2.071,2.071,0,0,1,122.661,164.744Zm0,8.276a2.069,2.069,0,1,1,2.069-2.069A2.071,2.071,0,0,1,122.661,173.02Zm0,8.276a2.069,2.069,0,1,1,2.069-2.069A2.071,2.071,0,0,1,122.661,181.3Zm0,8.276a2.069,2.069,0,1,1,2.069-2.069A2.071,2.071,0,0,1,122.661,189.573Zm0,16.552a2.069,2.069,0,1,1,2.069-2.069A2.071,2.071,0,0,1,122.661,206.125Zm0,8.276a2.069,2.069,0,1,1,2.069-2.069A2.071,2.071,0,0,1,122.661,214.4Zm0,8.276a2.069,2.069,0,1,1,2.069-2.069A2.071,2.071,0,0,1,122.661,222.678Zm-8.276-24.829a2.069,2.069,0,1,1,2.069-2.069A2.071,2.071,0,0,1,114.385,197.849ZM503.368,221.5a.887.887,0,1,1,.887-.887A.887.887,0,0,1,503.368,221.5Zm0,8.276a.887.887,0,1,1,.887-.887A.887.887,0,0,1,503.368,229.772Zm-8.276-8.276a.887.887,0,1,1,.887-.887A.887.887,0,0,1,495.091,221.5Zm0,16.552a.887.887,0,1,1,.887-.887A.887.887,0,0,1,495.091,238.048Zm0,8.276a.887.887,0,1,1,.887-.887A.887.887,0,0,1,495.091,246.324Zm0,8.276a.887.887,0,1,1,.887-.887A.887.887,0,0,1,495.091,254.6Zm0,115.867a.887.887,0,1,1,.887-.887A.888.888,0,0,1,495.091,370.467Zm0,8.276a.887.887,0,1,1,.887-.887A.888.888,0,0,1,495.091,378.744Zm0,8.276a.887.887,0,1,1,.887-.887A.888.888,0,0,1,495.091,387.02Zm0,8.276a.887.887,0,1,1,.887-.887A.888.888,0,0,1,495.091,395.3Zm-8.276-165.524a.887.887,0,1,1,.887-.887A.887.887,0,0,1,486.815,229.772Zm0,33.1a.887.887,0,1,1,.887-.887A.887.887,0,0,1,486.815,262.876Zm0,115.867a.887.887,0,1,1,.887-.887A.888.888,0,0,1,486.815,378.744Zm0,24.829a.887.887,0,1,1,.887-.887A.888.888,0,0,1,486.815,403.572Zm0,8.276a.887.887,0,1,1,.887-.887A.888.888,0,0,1,486.815,411.848Zm-8.276-182.077a.887.887,0,1,1,.887-.887A.887.887,0,0,1,478.539,229.772Zm0,41.381a.887.887,0,1,1,.887-.887A.887.887,0,0,1,478.539,271.153Zm0,115.867a.887.887,0,1,1,.887-.887A.888.888,0,0,1,478.539,387.02Zm0,33.1a.887.887,0,1,1,.887-.887A.888.888,0,0,1,478.539,420.125Zm0,8.276a.887.887,0,1,1,.887-.887A.888.888,0,0,1,478.539,428.4Zm-8.276-198.629a.887.887,0,1,1,.887-.887A.887.887,0,0,1,470.263,229.772Zm0,49.657a.887.887,0,1,1,.887-.887A.887.887,0,0,1,470.263,279.429Zm0,115.867a.887.887,0,1,1,.887-.887A.888.888,0,0,1,470.263,395.3Zm0,41.381a.887.887,0,1,1,.887-.887A.888.888,0,0,1,470.263,436.677Zm-8.276-206.905a.887.887,0,1,1,.887-.887A.887.887,0,0,1,461.986,229.772Zm0,57.934a.887.887,0,1,1,.887-.887A.888.888,0,0,1,461.986,287.705Zm0,115.867a.887.887,0,1,1,.887-.887A.888.888,0,0,1,461.986,403.572Zm0,8.276a.887.887,0,1,1,.887-.887A.888.888,0,0,1,461.986,411.848Zm0,8.276a.887.887,0,1,1,.887-.887A.888.888,0,0,1,461.986,420.125Zm0,8.276a.887.887,0,1,1,.887-.887A.888.888,0,0,1,461.986,428.4Zm0,16.552a.887.887,0,1,1,.887-.887A.888.888,0,0,1,461.986,444.953ZM453.71,213.219a.887.887,0,1,1,.887-.887A.887.887,0,0,1,453.71,213.219Zm0,8.276a.887.887,0,1,1,.887-.887A.887.887,0,0,1,453.71,221.5Zm0,74.486a.887.887,0,1,1,.887-.887A.888.888,0,0,1,453.71,295.981Zm0,140.7a.887.887,0,1,1,.887-.887A.888.888,0,0,1,453.71,436.677Zm-8.276-223.458a.887.887,0,1,1,.887-.887A.887.887,0,0,1,445.434,213.219Zm0,91.038a.887.887,0,1,1,.887-.887A.888.888,0,0,1,445.434,304.258Zm0,66.21a.887.887,0,1,1,.887-.887A.888.888,0,0,1,445.434,370.467Zm-8.276-165.524a.887.887,0,1,1,.887-.887A.887.887,0,0,1,437.158,204.943Zm0,107.591a.887.887,0,1,1,.887-.887A.888.888,0,0,1,437.158,312.534Zm0,8.276a.887.887,0,1,1,.887-.887A.888.888,0,0,1,437.158,320.81Zm0,8.276a.887.887,0,1,1,.887-.887A.888.888,0,0,1,437.158,329.086Zm0,16.552a.887.887,0,1,1,.887-.887A.888.888,0,0,1,437.158,345.639Zm0,8.276a.887.887,0,1,1,.887-.887A.888.888,0,0,1,437.158,353.915Zm0,8.276a.887.887,0,1,1,.887-.887A.888.888,0,0,1,437.158,362.191Zm0,16.552a.887.887,0,1,1,.887-.887A.888.888,0,0,1,437.158,378.744Zm0,8.276a.887.887,0,1,1,.887-.887A.888.888,0,0,1,437.158,387.02Zm-8.276-198.629a.887.887,0,1,1,.887-.887A.887.887,0,0,1,428.882,188.391Zm0-.591a.3.3,0,1,1,.3-.3A.3.3,0,0,1,428.882,187.8Zm0,8.867a.887.887,0,1,1,.887-.887A.887.887,0,0,1,428.882,196.667Zm0,140.7a.887.887,0,1,1,.887-.887A.888.888,0,0,1,428.882,337.362Zm0,57.934a.887.887,0,1,1,.887-.887A.888.888,0,0,1,428.882,395.3Zm-8.276-215.182a.887.887,0,1,1,.887-.887A.887.887,0,0,1,420.605,180.114Zm0,215.182a.887.887,0,1,1,.887-.887A.888.888,0,0,1,420.605,395.3Zm-8.276-231.734a.887.887,0,1,1,.887-.887A.887.887,0,0,1,412.329,163.562Zm0,8.276a.887.887,0,1,1,.887-.887A.887.887,0,0,1,412.329,171.838Zm0,231.734a.887.887,0,1,1,.887-.887A.888.888,0,0,1,412.329,403.572Zm-8.276-256.563a.887.887,0,1,1,.887-.887A.887.887,0,0,1,404.053,147.009Zm0,8.276a.887.887,0,1,1,.887-.887A.887.887,0,0,1,404.053,155.286Zm0,248.287a.887.887,0,1,1,.887-.887A.888.888,0,0,1,404.053,403.572Zm0,8.276a.887.887,0,1,1,.887-.887A.888.888,0,0,1,404.053,411.848Zm0,8.276a.887.887,0,1,1,.887-.887A.888.888,0,0,1,404.053,420.125Zm0,8.276a.887.887,0,1,1,.887-.887A.888.888,0,0,1,404.053,428.4Zm0,8.276a.887.887,0,1,1,.887-.887A.888.888,0,0,1,404.053,436.677ZM395.777,113.9a.887.887,0,1,1,.887-.887A.887.887,0,0,1,395.777,113.9Zm0,8.276a.887.887,0,1,1,.887-.887A.887.887,0,0,1,395.777,122.181Zm0,16.552a.887.887,0,1,1,.887-.887A.887.887,0,0,1,395.777,138.733Zm0,306.22a.887.887,0,1,1,.887-.887A.888.888,0,0,1,395.777,444.953ZM387.5,105.628a.887.887,0,1,1,.887-.887A.887.887,0,0,1,387.5,105.628Zm0,8.276a.887.887,0,1,1,.887-.887A.887.887,0,0,1,387.5,113.9Zm0,16.552a.887.887,0,1,1,.887-.887A.887.887,0,0,1,387.5,130.457Zm0,322.773a.887.887,0,1,1,.887-.887A.888.888,0,0,1,387.5,453.23Zm0,8.276a.887.887,0,1,1,.887-.887A.888.888,0,0,1,387.5,461.506Zm-8.276-355.877a.887.887,0,1,1,.887-.887A.887.887,0,0,1,379.224,105.628Zm0,16.552a.887.887,0,1,1,.887-.887A.887.887,0,0,1,379.224,122.181Zm0,347.6a.887.887,0,1,1,.887-.887A.888.888,0,0,1,379.224,469.782ZM370.948,113.9a.887.887,0,1,1,.887-.887A.887.887,0,0,1,370.948,113.9Zm0,364.154a.887.887,0,1,1,.887-.887A.888.888,0,0,1,370.948,478.058ZM362.672,113.9a.887.887,0,1,1,.887-.887A.887.887,0,0,1,362.672,113.9Zm0,364.154a.887.887,0,1,1,.887-.887A.888.888,0,0,1,362.672,478.058ZM354.4,113.9a.887.887,0,1,1,.887-.887A.887.887,0,0,1,354.4,113.9Zm0,372.43a.887.887,0,1,1,.887-.887A.888.888,0,0,1,354.4,486.334ZM346.119,113.9a.887.887,0,1,1,.887-.887A.887.887,0,0,1,346.119,113.9Zm0,380.706a.887.887,0,1,1,.887-.887A.888.888,0,0,1,346.119,494.611Zm-8.276-388.982a.887.887,0,1,1,.887-.887A.887.887,0,0,1,337.843,105.628Zm0,388.982a.887.887,0,1,1,.887-.887A.888.888,0,0,1,337.843,494.611Zm-8.276-388.982a.887.887,0,1,1,.887-.887A.887.887,0,0,1,329.567,105.628Zm0,388.982a.887.887,0,1,1,.887-.887A.888.888,0,0,1,329.567,494.611Zm-8.276-388.982a.887.887,0,1,1,.887-.887A.887.887,0,0,1,321.291,105.628Zm0,388.982a.887.887,0,1,1,.887-.887A.888.888,0,0,1,321.291,494.611Zm-8.276-372.43a.887.887,0,1,1,.887-.887A.887.887,0,0,1,313.014,122.181Zm0,355.877a.887.887,0,1,1,.887-.887A.888.888,0,0,1,313.014,478.058Zm0,8.276a.887.887,0,1,1,.887-.887A.888.888,0,0,1,313.014,486.334ZM304.738,113.9a.887.887,0,1,1,.887-.887A.887.887,0,0,1,304.738,113.9Zm0,355.877a.887.887,0,1,1,.887-.887A.888.888,0,0,1,304.738,469.782ZM296.462,113.9a.887.887,0,1,1,.887-.887A.887.887,0,0,1,296.462,113.9Zm0,331.049a.887.887,0,1,1,.887-.887A.888.888,0,0,1,296.462,444.953Zm0,8.276a.887.887,0,1,1,.887-.887A.888.888,0,0,1,296.462,453.23Zm0,8.276a.887.887,0,1,1,.887-.887A.888.888,0,0,1,296.462,461.506Zm-8.276-355.877a.887.887,0,1,1,.887-.887A.887.887,0,0,1,288.186,105.628Zm0,248.287a.887.887,0,1,1,.887-.887A.888.888,0,0,1,288.186,353.915Zm0,8.276a.887.887,0,1,1,.887-.887A.888.888,0,0,1,288.186,362.191Zm0,8.276a.887.887,0,1,1,.887-.887A.888.888,0,0,1,288.186,370.467Zm0,49.657a.887.887,0,1,1,.887-.887A.888.888,0,0,1,288.186,420.125Zm0,8.276a.887.887,0,1,1,.887-.887A.888.888,0,0,1,288.186,428.4Zm0,8.276a.887.887,0,1,1,.887-.887A.888.888,0,0,1,288.186,436.677ZM279.91,105.628a.887.887,0,1,1,.887-.887A.887.887,0,0,1,279.91,105.628Zm0,231.734a.887.887,0,1,1,.887-.887A.888.888,0,0,1,279.91,337.362Zm0,8.276a.887.887,0,1,1,.887-.887A.888.888,0,0,1,279.91,345.639Zm0,33.1a.887.887,0,1,1,.887-.887A.888.888,0,0,1,279.91,378.744Zm0,8.276a.887.887,0,1,1,.887-.887A.888.888,0,0,1,279.91,387.02Zm0,8.276a.887.887,0,1,1,.887-.887A.888.888,0,0,1,279.91,395.3Zm0,8.276a.887.887,0,1,1,.887-.887A.888.888,0,0,1,279.91,403.572Zm0,8.276a.887.887,0,1,1,.887-.887A.888.888,0,0,1,279.91,411.848Zm-8.276-306.22a.887.887,0,1,1,.887-.887A.887.887,0,0,1,271.633,105.628Zm0,215.182a.887.887,0,1,1,.887-.887A.888.888,0,0,1,271.633,320.81Zm0,8.276a.887.887,0,1,1,.887-.887A.888.888,0,0,1,271.633,329.086ZM263.357,80.8a.887.887,0,1,1,.887-.887A.887.887,0,0,1,263.357,80.8Zm0,8.276a.887.887,0,1,1,.887-.887A.887.887,0,0,1,263.357,89.076Zm0,8.276a.887.887,0,1,1,.887-.887A.887.887,0,0,1,263.357,97.352Zm0,182.077a.887.887,0,1,1,.887-.887A.887.887,0,0,1,263.357,279.429Zm0,8.276a.887.887,0,1,1,.887-.887A.888.888,0,0,1,263.357,287.705Zm0,8.276a.887.887,0,1,1,.887-.887A.888.888,0,0,1,263.357,295.981Zm0,8.276a.887.887,0,1,1,.887-.887A.888.888,0,0,1,263.357,304.258Zm0,8.276a.887.887,0,1,1,.887-.887A.888.888,0,0,1,263.357,312.534Zm-8.276-240.01a.887.887,0,1,1,.887-.887A.887.887,0,0,1,255.081,72.523Zm0,198.629a.887.887,0,1,1,.887-.887A.887.887,0,0,1,255.081,271.153Zm0,33.1a.887.887,0,1,1,.887-.887A.888.888,0,0,1,255.081,304.258ZM246.8,80.8a.887.887,0,1,1,.887-.887A.887.887,0,0,1,246.8,80.8Zm0,182.077a.887.887,0,1,1,.887-.887A.887.887,0,0,1,246.8,262.876Zm0,24.829a.887.887,0,1,1,.887-.887A.888.888,0,0,1,246.8,287.705ZM238.529,72.523a.887.887,0,1,1,.887-.887A.887.887,0,0,1,238.529,72.523Zm0,190.353a.887.887,0,1,1,.887-.887A.887.887,0,0,1,238.529,262.876ZM230.252,72.523a.887.887,0,1,1,.887-.887A.887.887,0,0,1,230.252,72.523Zm0,182.077a.887.887,0,1,1,.887-.887A.887.887,0,0,1,230.252,254.6Zm0,8.276a.887.887,0,1,1,.887-.887A.887.887,0,0,1,230.252,262.876ZM221.976,80.8a.887.887,0,1,1,.887-.887A.887.887,0,0,1,221.976,80.8Zm0,173.8a.887.887,0,1,1,.887-.887A.887.887,0,0,1,221.976,254.6ZM213.7,80.8a.887.887,0,1,1,.887-.887A.887.887,0,0,1,213.7,80.8Zm0,173.8a.887.887,0,1,1,.887-.887A.887.887,0,0,1,213.7,254.6ZM205.424,80.8a.887.887,0,1,1,.887-.887A.887.887,0,0,1,205.424,80.8Zm0,173.8a.887.887,0,1,1,.887-.887A.887.887,0,0,1,205.424,254.6ZM197.147,80.8a.887.887,0,1,1,.887-.887A.887.887,0,0,1,197.147,80.8Zm0,173.8a.887.887,0,1,1,.887-.887A.887.887,0,0,1,197.147,254.6ZM188.871,89.076a.887.887,0,1,1,.887-.887A.887.887,0,0,1,188.871,89.076Zm0,165.524a.887.887,0,1,1,.887-.887A.887.887,0,0,1,188.871,254.6ZM180.595,89.076a.887.887,0,1,1,.887-.887A.887.887,0,0,1,180.595,89.076Zm0,165.524a.887.887,0,1,1,.887-.887A.887.887,0,0,1,180.595,254.6ZM172.319,89.076a.887.887,0,1,1,.887-.887A.887.887,0,0,1,172.319,89.076Zm0,173.8a.887.887,0,1,1,.887-.887A.887.887,0,0,1,172.319,262.876ZM164.043,97.352a.887.887,0,1,1,.887-.887A.887.887,0,0,1,164.043,97.352Zm0,8.276a.887.887,0,1,1,.887-.887A.887.887,0,0,1,164.043,105.628Zm0,157.248a.887.887,0,1,1,.887-.887A.887.887,0,0,1,164.043,262.876ZM155.766,113.9a.887.887,0,1,1,.887-.887A.887.887,0,0,1,155.766,113.9Zm0,148.972a.887.887,0,1,1,.887-.887A.887.887,0,0,1,155.766,262.876Zm-8.276-140.7a.887.887,0,1,1,.887-.887A.887.887,0,0,1,147.49,122.181Zm0,140.7a.887.887,0,1,1,.887-.887A.887.887,0,0,1,147.49,262.876Zm-8.276-132.419a.887.887,0,1,1,.887-.887A.887.887,0,0,1,139.214,130.457Zm0,132.419a.887.887,0,1,1,.887-.887A.887.887,0,0,1,139.214,262.876Zm-8.276-124.143a.887.887,0,1,1,.887-.887A.887.887,0,0,1,130.938,138.733Zm0,107.591a.887.887,0,1,1,.887-.887A.887.887,0,0,1,130.938,246.324Zm0,8.276a.887.887,0,1,1,.887-.887A.887.887,0,0,1,130.938,254.6Zm-8.276-99.315a.887.887,0,1,1,.887-.887A.887.887,0,0,1,122.661,155.286Zm0-8.276a.887.887,0,1,1,.887-.887A.887.887,0,0,1,122.661,147.009Zm-8.276,33.1a.887.887,0,1,1,.887-.887A.887.887,0,0,1,114.385,180.114Zm8.276,49.657a.887.887,0,1,1,.887-.887A.887.887,0,0,1,122.661,229.772Zm0,8.276a.887.887,0,1,1,.887-.887A.887.887,0,0,1,122.661,238.048Zm-8.276-74.486a.887.887,0,1,1,.887-.887A.887.887,0,0,1,114.385,163.562Zm0,8.276a.887.887,0,1,1,.887-.887A.887.887,0,0,1,114.385,171.838Zm0,8.276a.887.887,0,1,1,.887-.887A.887.887,0,0,1,114.385,180.114Zm0,8.276a.887.887,0,1,1,.887-.887A.887.887,0,0,1,114.385,188.391Zm-8.276,8.276a.887.887,0,1,1,.887-.887A.887.887,0,0,1,106.109,196.667Zm8.276,8.276a.887.887,0,1,1,.887-.887A.887.887,0,0,1,114.385,204.943Zm0,8.276a.887.887,0,1,1,.887-.887A.887.887,0,0,1,114.385,213.219Zm0,8.276a.887.887,0,1,1,.887-.887A.887.887,0,0,1,114.385,221.5Zm-8.276-8.276a.887.887,0,1,1,.887-.887A.887.887,0,0,1,106.109,213.219Zm0,8.276a.887.887,0,1,1,.887-.887A.887.887,0,0,1,106.109,221.5Z" transform="translate(-63.25 -70.75)" fill="url(#radial-gradient)"/>
    <ellipse id="Ellipse_1" data-name="Ellipse 1" cx="2.66" cy="2.66" rx="2.66" ry="2.66" transform="translate(346.419 312.723)" fill="#fff"/>
    <ellipse id="Ellipse_2" data-name="Ellipse 2" cx="2.66" cy="2.66" rx="2.66" ry="2.66" transform="translate(305.038 64.436)" fill="#fff"/>
    <ellipse id="Ellipse_3" data-name="Ellipse 3" cx="2.66" cy="2.66" rx="2.66" ry="2.66" transform="translate(255.381 378.932)" fill="#fff"/>
    <ellipse id="Ellipse_4" data-name="Ellipse 4" cx="2.66" cy="2.66" rx="2.66" ry="2.66" transform="translate(131.237 89.265)" fill="#fff"/>
    <g id="Group_1" data-name="Group 1" transform="translate(247.104 246.513)">
      <ellipse id="Ellipse_5" data-name="Ellipse 5" cx="2.66" cy="2.66" rx="2.66" ry="2.66" fill="#0670b8"/>
    </g>
    <g id="Group_2" data-name="Group 2" transform="translate(230.552 221.684)">
      <ellipse id="Ellipse_6" data-name="Ellipse 6" cx="2.66" cy="2.66" rx="2.66" ry="2.66" fill="#0670b8"/>
    </g>
    <g id="Group_3" data-name="Group 3" transform="translate(230.552 229.961)">
      <ellipse id="Ellipse_7" data-name="Ellipse 7" cx="2.66" cy="2.66" rx="2.66" ry="2.66" fill="#0670b8"/>
    </g>
    <g id="Group_4" data-name="Group 4" transform="translate(189.171 163.751)">
      <ellipse id="Ellipse_8" data-name="Ellipse 8" cx="2.66" cy="2.66" rx="2.66" ry="2.66" fill="#0670b8"/>
    </g>
    <g id="Group_5" data-name="Group 5" transform="translate(189.171 31.331)">
      <ellipse id="Ellipse_9" data-name="Ellipse 9" cx="2.66" cy="2.66" rx="2.66" ry="2.66" fill="#0670b8"/>
    </g>
    <g id="Group_6" data-name="Group 6" transform="translate(180.895 31.331)">
      <ellipse id="Ellipse_10" data-name="Ellipse 10" cx="2.66" cy="2.66" rx="2.66" ry="2.66" fill="#0670b8"/>
    </g>
    <g id="Group_7" data-name="Group 7" transform="translate(172.618 56.16)">
      <ellipse id="Ellipse_11" data-name="Ellipse 11" cx="2.66" cy="2.66" rx="2.66" ry="2.66" fill="#0670b8"/>
    </g>
    <g id="Group_8" data-name="Group 8" transform="translate(346.419 130.646)">
      <ellipse id="Ellipse_12" data-name="Ellipse 12" cx="2.66" cy="2.66" rx="2.66" ry="2.66" fill="#0670b8"/>
    </g>
    <g id="Group_9" data-name="Group 9" transform="translate(131.237 130.646)">
      <ellipse id="Ellipse_13" data-name="Ellipse 13" cx="2.66" cy="2.66" rx="2.66" ry="2.66" transform="translate(0)" fill="#0670b8"/>
    </g>
    <g id="Group_10" data-name="Group 10" transform="translate(122.961 130.646)">
      <ellipse id="Ellipse_14" data-name="Ellipse 14" cx="2.66" cy="2.66" rx="2.66" ry="2.66" fill="#0670b8"/>
    </g>
    <g id="Group_11" data-name="Group 11" transform="translate(114.685 155.475)">
      <ellipse id="Ellipse_15" data-name="Ellipse 15" cx="2.66" cy="2.66" rx="2.66" ry="2.66" fill="#0670b8"/>
    </g>
    <g id="Group_12" data-name="Group 12" transform="translate(354.695 229.961)">
      <ellipse id="Ellipse_16" data-name="Ellipse 16" cx="2.66" cy="2.66" rx="2.66" ry="2.66" fill="#0670b8"/>
    </g>
    <g id="Group_13" data-name="Group 13" transform="translate(305.038 263.065)">
      <ellipse id="Ellipse_17" data-name="Ellipse 17" cx="2.66" cy="2.66" rx="2.66" ry="2.66" fill="#0670b8"/>
    </g>
    <g id="Group_14" data-name="Group 14" transform="translate(288.485 196.856)">
      <ellipse id="Ellipse_18" data-name="Ellipse 18" cx="2.66" cy="2.66" rx="2.66" ry="2.66" fill="#0670b8"/>
    </g>
    <g id="Group_15" data-name="Group 15" transform="translate(288.485 387.209)">
      <ellipse id="Ellipse_19" data-name="Ellipse 19" cx="2.66" cy="2.66" rx="2.66" ry="2.66" transform="translate(0 0)" fill="#0670b8"/>
    </g>
    <g id="Group_16" data-name="Group 16" transform="translate(263.657 362.38)">
      <ellipse id="Ellipse_20" data-name="Ellipse 20" cx="2.66" cy="2.66" rx="2.66" ry="2.66" transform="translate(0 0)" fill="#0670b8"/>
    </g>
    <g id="Group_17" data-name="Group 17" transform="translate(263.657 370.656)">
      <ellipse id="Ellipse_21" data-name="Ellipse 21" cx="2.66" cy="2.66" rx="2.66" ry="2.66" transform="translate(0 0)" fill="#0670b8"/>
    </g>
    <ellipse id="Ellipse_22" data-name="Ellipse 22" cx="2.069" cy="2.069" rx="2.069" ry="2.069" transform="translate(413.22 329.866)" fill="#fff"/>
  </g>
</svg>
