<svg width="207" height="166" viewBox="0 0 207 166" fill="none" xmlns="http://www.w3.org/2000/svg">
<path d="M91.5 142C118.838 142 141 119.838 141 92.5C141 65.1619 118.838 43 91.5 43C64.1619 43 42 65.1619 42 92.5C42 119.838 64.1619 142 91.5 142Z" fill="#2073E2"/>
<path d="M78.8517 114.83L104.304 140.282C125.385 134.661 141 115.454 141 92.5001C141 92.0316 141 91.5631 141 91.0947L121.013 72.6688L78.8517 114.83Z" fill="#004DB4"/>
<path d="M92.7492 103.587C94.9353 105.773 94.9353 109.521 92.7492 111.707L88.2208 116.235C86.0347 118.421 82.2871 118.421 80.101 116.235L60.2697 96.2477C58.0836 94.0616 58.0836 90.3139 60.2697 88.1278L64.7981 83.5994C66.9842 81.4133 70.7319 81.4133 72.918 83.5994L92.7492 103.587Z" fill="white"/>
<path d="M110.082 69.0773C112.268 66.8912 116.016 66.8912 118.202 69.0773L122.73 73.6057C124.916 75.7918 124.916 79.5395 122.73 81.7256L88.377 115.923C86.1908 118.109 82.4432 118.109 80.2571 115.923L75.7287 111.394C73.5426 109.208 73.5426 105.461 75.7287 103.274L110.082 69.0773Z" fill="white"/>
<circle cx="84.5" cy="152.5" r="4.5" fill="#004DB4" fill-opacity="0.17"/>
<circle cx="127.5" cy="161.5" r="4.5" fill="#004DB4" fill-opacity="0.17"/>
<circle cx="20" cy="43" r="12" fill="#004DB4" fill-opacity="0.17"/>
<circle cx="153" cy="145" r="12" fill="#004DB4" fill-opacity="0.17"/>
<circle cx="32" cy="137" r="12" fill="#004DB4" fill-opacity="0.17"/>
<circle cx="195" cy="67" r="12" fill="#004DB4" fill-opacity="0.17"/>
<circle cx="93.5" cy="8.5" r="8.5" fill="#004DB4" fill-opacity="0.17"/>
<circle cx="183.5" cy="120.5" r="4.5" fill="#004DB4" fill-opacity="0.17"/>
<circle cx="160.5" cy="31.5" r="4.5" fill="#004DB4" fill-opacity="0.17"/>
<circle cx="4.5" cy="71.5" r="4.5" fill="#004DB4" fill-opacity="0.17"/>
<circle cx="29.5" cy="90.5" r="4.5" fill="#004DB4" fill-opacity="0.17"/>
</svg>
